JosefinSlab-Bold-TTF.ufo
<glyph name="exclam" format="1">
  <advance width="201"/>
  <unicode hex="0021"/>
  <outline>
    <contour>
      <point x="100" y="0" type="qcurve" name="ab01"/>
      <point x="80" y="0"/>
      <point x="48" y="30"/>
      <point x="48" y="53" type="qcurve" name="sh01"/>
      <point x="48" y="76"/>
      <point x="80" y="105"/>
      <point x="100" y="105" type="qcurve" name="sv01"/>
      <point x="119" y="105"/>
      <point x="151" y="76"/>
      <point x="151" y="53" type="qcurve" name="sh02"/>
      <point x="151" y="30"/>
      <point x="119" y="0"/>
    </contour>
    <contour>
      <point x="58" y="750" type="line" name="ah01"/>
      <point x="141" y="750" type="line" name="sh03"/>
      <point x="141" y="166" type="line"/>
      <point x="58" y="166" type="line" name="sv02"/>
    </contour>
  </outline>
</glyph>
<glyph name="numbersign" format="1">
  <advance width="571"/>
  <unicode hex="0023"/>
  <outline>
    <contour>
      <point x="223" y="371" type="line" name="ih01"/>
      <point x="211" y="269" type="line" name="iv01"/>
      <point x="311" y="269" type="line" name="ih02"/>
      <point x="323" y="371" type="line" name="ih03"/>
    </contour>
    <contour>
      <point x="279" y="0" type="line" name="sh04"/>
      <point x="284" y="48"/>
      <point x="296" y="140"/>
      <point x="301" y="188" type="qcurve" name="ih04"/>
      <point x="201" y="188" type="line" name="ih05"/>
      <point x="196" y="140"/>
      <point x="184" y="48"/>
      <point x="179" y="0" type="qcurve" name="sh03"/>
      <point x="95" y="0" type="line" name="ah01"/>
      <point x="100" y="48"/>
      <point x="112" y="140"/>
      <point x="117" y="188" type="qcurve" name="ih06"/>
      <point x="25" y="188" type="line" name="sh06"/>
      <point x="27" y="208"/>
      <point x="33" y="249"/>
      <point x="35" y="269" type="qcurve"/>
      <point x="127" y="269" type="line" name="ih07"/>
      <point x="139" y="371" type="line" name="ih08"/>
      <point x="48" y="371" type="line" name="sh07"/>
      <point x="50" y="391"/>
      <point x="54" y="432"/>
      <point x="56" y="452" type="qcurve"/>
      <point x="148" y="452" type="line" name="ih09"/>
      <point x="154" y="500"/>
      <point x="166" y="595"/>
      <point x="172" y="643" type="qcurve" name="sh01"/>
      <point x="256" y="643" type="line" name="sh02"/>
      <point x="250" y="595"/>
      <point x="238" y="500"/>
      <point x="232" y="452" type="qcurve" name="ih10"/>
      <point x="332" y="452" type="line" name="ih11"/>
      <point x="338" y="500"/>
      <point x="350" y="595"/>
      <point x="356" y="643" type="qcurve" name="sh05"/>
      <point x="440" y="643" type="line" name="sh08"/>
      <point x="434" y="595"/>
      <point x="422" y="500"/>
      <point x="416" y="452" type="qcurve" name="ih12"/>
      <point x="518" y="452" type="line"/>
      <point x="516" y="432"/>
      <point x="512" y="391"/>
      <point x="510" y="371" type="qcurve" name="sh10"/>
      <point x="407" y="371" type="line" name="ih13"/>
      <point x="395" y="269" type="line" name="ih14"/>
      <point x="497" y="269" type="line"/>
      <point x="495" y="249"/>
      <point x="489" y="208"/>
      <point x="487" y="188" type="qcurve" name="sh11"/>
      <point x="385" y="188" type="line" name="ih15"/>
      <point x="380" y="140"/>
      <point x="368" y="48"/>
      <point x="363" y="0" type="qcurve" name="sh09"/>
    </contour>
  </outline>
</glyph>
<glyph name="ampersand" format="1">
  <advance width="700"/>
  <unicode hex="0026"/>
  <outline>
    <contour>
      <point x="422" y="375" type="line" name="sh01"/>
      <point x="601" y="375" type="line" name="at02"/>
      <point x="601" y="294" type="line" name="sh02"/>
      <point x="506" y="294" type="line" name="dh02"/>
      <point x="506" y="254" type="line"/>
      <point x="506" y="214" type="line"/>
      <point x="506" y="197"/>
      <point x="504" y="160"/>
      <point x="501" y="145" type="qcurve" name="sh03"/>
      <point x="576" y="24" type="line" name="sh04"/>
      <point x="511" y="-19" type="line" name="av01"/>
      <point x="461" y="63" type="line" name="ih01"/>
      <point x="433" y="30" name="fh01"/>
      <point x="353" y="-9"/>
      <point x="305" y="-9" type="qcurve" name="ab01"/>
      <point x="263" y="-9"/>
      <point x="190" y="22" name="fh02"/>
      <point x="163.0" y="49.0" type="qcurve" smooth="yes" name="inserted"/>
      <point x="136" y="76" name="fh03"/>
      <point x="105" y="147"/>
      <point x="105" y="188" type="qcurve" name="dh01"/>
      <point x="105" y="224"/>
      <point x="129" y="288" name="fh04"/>
      <point x="151.0" y="313.5" type="qcurve" smooth="yes" name="inserted"/>
      <point x="173" y="339" name="fh05"/>
      <point x="231" y="374"/>
      <point x="266" y="380" type="qcurve" name="ih03"/>
      <point x="196" y="496" type="line"/>
      <point x="182" y="520"/>
      <point x="166" y="571"/>
      <point x="166" y="596" type="qcurve" name="ih02"/>
      <point x="166" y="621"/>
      <point x="187" y="674"/>
      <point x="207.0" y="696.5" type="qcurve" smooth="yes" name="inserted"/>
      <point x="227" y="719" name="fh06"/>
      <point x="285" y="748"/>
      <point x="323" y="748" type="qcurve" name="at01"/>
      <point x="361" y="748"/>
      <point x="429" y="721" name="fh07"/>
      <point x="454" y="705" type="qcurve" name="sh06"/>
      <point x="421" y="640" type="line" name="sv01"/>
      <point x="406" y="648"/>
      <point x="357" y="669"/>
      <point x="333" y="669" type="qcurve" name="sv02"/>
      <point x="312" y="669"/>
      <point x="282" y="651"/>
      <point x="272.0" y="637.5" type="qcurve" smooth="yes" name="inserted"/>
      <point x="262" y="624"/>
      <point x="252" y="593"/>
      <point x="252" y="581" type="qcurve" name="sh07"/>
      <point x="252" y="564"/>
      <point x="263" y="531"/>
      <point x="273" y="515" type="qcurve"/>
      <point x="422" y="273" type="line" name="iv01"/>
      <point x="422" y="276" type="line"/>
    </contour>
    <contour>
      <point x="188" y="188" type="qcurve" name="sh08"/>
      <point x="188" y="139"/>
      <point x="253" y="72"/>
      <point x="305" y="72" type="qcurve" name="sv03"/>
      <point x="343" y="72"/>
      <point x="400" y="110"/>
      <point x="413" y="141" type="qcurve" name="sh05"/>
      <point x="314" y="303" type="line" name="ih04"/>
      <point x="257" y="303"/>
      <point x="188" y="242"/>
    </contour>
  </outline>
</glyph>
<glyph name="parenright" format="1">
  <advance width="400"/>
  <unicode hex="0029"/>
  <outline>
    <contour>
      <point x="312" y="288" type="qcurve" name="ah01"/>
      <point x="312" y="213"/>
      <point x="284" y="77"/>
      <point x="261.0" y="19.0" type="qcurve" smooth="yes" name="inserted"/>
      <point x="238" y="-39" name="fh01"/>
      <point x="178" y="-134"/>
      <point x="147" y="-167" type="qcurve" name="sh03"/>
      <point x="129" y="-162"/>
      <point x="92" y="-151"/>
      <point x="74" y="-146" type="qcurve" name="sh04"/>
      <point x="103" y="-113"/>
      <point x="158" y="-23"/>
      <point x="180.0" y="32.0" type="qcurve" smooth="yes" name="inserted"/>
      <point x="202" y="87"/>
      <point x="228" y="215"/>
      <point x="228" y="286" type="qcurve" name="sh05"/>
      <point x="228" y="357"/>
      <point x="202" y="485" name="fh02"/>
      <point x="180.0" y="540.0" type="qcurve" smooth="yes" name="inserted"/>
      <point x="158" y="595"/>
      <point x="103" y="685"/>
      <point x="74" y="718" type="qcurve" name="sh01"/>
      <point x="92" y="724"/>
      <point x="129" y="737"/>
      <point x="147" y="743" type="qcurve" name="sh02"/>
      <point x="178" y="710"/>
      <point x="238" y="615" name="fh03"/>
      <point x="261.0" y="557.0" type="qcurve" smooth="yes" name="inserted"/>
      <point x="284" y="499"/>
      <point x="312" y="363"/>
    </contour>
  </outline>
</glyph>
<glyph name="three" format="1">
  <advance width="515"/>
  <unicode hex="0033"/>
  <outline>
    <contour>
      <point x="154" y="326" type="qcurve" name="ih01"/>
      <point x="293" y="568" type="line" name="sh02"/>
      <point x="182" y="568" type="line" name="sv01"/>
      <point x="182" y="521" type="line" name="sh03"/>
      <point x="103" y="521" type="line" name="ih02"/>
      <point x="103" y="650" type="line" name="at01"/>
      <point x="432" y="650" type="line" name="sh01"/>
      <point x="289" y="412" type="line" name="sh04"/>
      <point x="322" y="400" name="fh01"/>
      <point x="376" y="361" name="fh02"/>
      <point x="396.0" y="335.0" type="qcurve" smooth="yes" name="inserted"/>
      <point x="416" y="309" name="fh03"/>
      <point x="438" y="245"/>
      <point x="438" y="209" type="qcurve" name="dh02"/>
      <point x="438" y="164"/>
      <point x="403" y="85" name="fh04"/>
      <point x="373.0" y="55.5" type="qcurve" smooth="yes" name="inserted"/>
      <point x="343" y="26" name="fh05"/>
      <point x="264" y="-8"/>
      <point x="219" y="-8" type="qcurve" name="ab01"/>
      <point x="171" y="-8"/>
      <point x="89" y="31"/>
      <point x="59" y="63" type="qcurve" name="dh01"/>
      <point x="120" y="120" type="line" name="sv02"/>
      <point x="138" y="98"/>
      <point x="189" y="73"/>
      <point x="219" y="73" type="qcurve" name="sv03"/>
      <point x="247" y="73"/>
      <point x="296" y="95"/>
      <point x="314.5" y="113.5" type="qcurve" smooth="yes" name="inserted"/>
      <point x="333" y="132"/>
      <point x="355" y="181"/>
      <point x="355" y="209" type="qcurve" name="sh05"/>
      <point x="355" y="237"/>
      <point x="333" y="286"/>
      <point x="314.5" y="304.0" type="qcurve" smooth="yes" name="inserted"/>
      <point x="296" y="322"/>
      <point x="247" y="343"/>
      <point x="219" y="343" type="qcurve" name="iv01"/>
      <point x="201.0" y="343.0" name="inserted"/>
      <point x="168.5" y="334.5"/>
    </contour>
  </outline>
</glyph>
<glyph name="four" format="1">
  <advance width="529"/>
  <unicode hex="0034"/>
  <outline>
    <contour>
      <point x="244" y="79" type="line" name="sh02"/>
      <point x="319" y="79" type="line"/>
      <point x="319" y="183" type="line" name="sh01"/>
      <point x="37" y="183" type="line" name="dh01"/>
      <point x="403" y="658" type="line" name="at01"/>
      <point x="403" y="264" type="line" name="sh03"/>
      <point x="500" y="264" type="line"/>
      <point x="500" y="183" type="line" name="sh04"/>
      <point x="403" y="183" type="line" name="dh02"/>
      <point x="403" y="79" type="line" name="sv01"/>
      <point x="486" y="79" type="line" name="sh05"/>
      <point x="486" y="0" type="line"/>
      <point x="244" y="0" type="line" name="ab01"/>
    </contour>
    <contour>
      <point x="319" y="413" type="line" name="sv02"/>
      <point x="205" y="264" type="line" name="sh06"/>
      <point x="319" y="264" type="line" name="sh07"/>
    </contour>
  </outline>
</glyph>
<glyph name="seven" format="1">
  <advance width="469"/>
  <unicode hex="0037"/>
  <outline>
    <contour>
      <point x="427" y="650" type="line" name="dh02"/>
      <point x="135" y="0" type="line" name="sh01"/>
      <point x="40" y="0" type="line" name="sh03"/>
      <point x="297" y="568" type="line" name="sh02"/>
      <point x="93" y="568" type="line" name="sv01"/>
      <point x="93" y="521" type="line" name="sh04"/>
      <point x="14" y="521" type="line" name="dh01"/>
      <point x="14" y="650" type="line" name="at01"/>
    </contour>
  </outline>
</glyph>
<glyph name="eight" format="1">
  <advance width="510"/>
  <unicode hex="0038"/>
  <outline>
    <contour>
      <point x="180" y="498" type="qcurve" name="sh01"/>
      <point x="180" y="466"/>
      <point x="224" y="424"/>
      <point x="255" y="424" type="qcurve" name="iv01"/>
      <point x="287" y="424"/>
      <point x="330" y="466"/>
      <point x="330" y="498" type="qcurve" name="sh02"/>
      <point x="330" y="530"/>
      <point x="287" y="577"/>
      <point x="255" y="577" type="qcurve" name="sv01"/>
      <point x="224" y="577"/>
      <point x="180" y="530"/>
    </contour>
    <contour>
      <point x="122" y="209" type="qcurve" name="sh03"/>
      <point x="122" y="181"/>
      <point x="142" y="132"/>
      <point x="160.0" y="113.5" type="qcurve" smooth="yes" name="inserted"/>
      <point x="178" y="95"/>
      <point x="226" y="73"/>
      <point x="253" y="73" type="qcurve" name="sv02"/>
      <point x="281" y="73"/>
      <point x="330" y="95"/>
      <point x="348.5" y="113.5" type="qcurve" smooth="yes" name="inserted"/>
      <point x="367" y="132"/>
      <point x="389" y="181"/>
      <point x="389" y="209" type="qcurve" name="sh04"/>
      <point x="389" y="236"/>
      <point x="368" y="284"/>
      <point x="350.5" y="302.0" type="qcurve" smooth="yes" name="inserted"/>
      <point x="333" y="320"/>
      <point x="285" y="342"/>
      <point x="258" y="343" type="qcurve" name="sv03"/>
      <point x="229" y="343"/>
      <point x="179" y="322"/>
      <point x="161.0" y="304.0" type="qcurve" smooth="yes" name="inserted"/>
      <point x="143" y="286"/>
      <point x="122" y="237"/>
    </contour>
    <contour>
      <point x="36" y="209" type="qcurve" name="dh01"/>
      <point x="36" y="267" name="fh01"/>
      <point x="92" y="362" name="fh02"/>
      <point x="138" y="391" type="qcurve" name="ih03"/>
      <point x="118" y="411"/>
      <point x="95" y="466"/>
      <point x="95" y="498" type="qcurve" name="ih01"/>
      <point x="95" y="531"/>
      <point x="120" y="589"/>
      <point x="141.5" y="611.0" type="qcurve" smooth="yes" name="inserted"/>
      <point x="163" y="633"/>
      <point x="220" y="658"/>
      <point x="253" y="658" type="qcurve" name="at01"/>
      <point x="286" y="658"/>
      <point x="344" y="633"/>
      <point x="366.0" y="611.0" type="qcurve" smooth="yes" name="inserted"/>
      <point x="388" y="589"/>
      <point x="413" y="531"/>
      <point x="413" y="498" type="qcurve" name="ih02"/>
      <point x="413" y="466"/>
      <point x="389" y="411"/>
      <point x="369" y="391" type="qcurve" name="ih04"/>
      <point x="415" y="362" name="fh03"/>
      <point x="472" y="267" name="fh04"/>
      <point x="472" y="209" type="qcurve" name="dh02"/>
      <point x="472" y="164"/>
      <point x="437" y="85" name="fh05"/>
      <point x="407.0" y="55.5" type="qcurve" smooth="yes" name="inserted"/>
      <point x="377" y="26" name="fh06"/>
      <point x="298" y="-8"/>
      <point x="253" y="-8" type="qcurve" name="ab01"/>
      <point x="208" y="-8"/>
      <point x="129" y="26" name="fh07"/>
      <point x="99.5" y="55.5" type="qcurve" smooth="yes" name="inserted"/>
      <point x="70" y="85" name="fh08"/>
      <point x="36" y="164"/>
    </contour>
  </outline>
</glyph>
<glyph name="nine" format="1">
  <advance width="525"/>
  <unicode hex="0039"/>
  <outline>
    <contour>
      <point x="376" y="419" type="qcurve" name="sh01"/>
      <point x="376" y="447"/>
      <point x="356" y="496"/>
      <point x="338.0" y="514.5" type="qcurve" smooth="yes" name="inserted"/>
      <point x="320" y="533"/>
      <point x="272" y="555"/>
      <point x="245" y="555" type="qcurve" name="sv01"/>
      <point x="217" y="555"/>
      <point x="168" y="533"/>
      <point x="149.5" y="514.5" type="qcurve" smooth="yes" name="inserted"/>
      <point x="131" y="496"/>
      <point x="109" y="447"/>
      <point x="109" y="419" type="qcurve" name="sh02"/>
      <point x="109" y="391"/>
      <point x="131" y="342"/>
      <point x="149.5" y="324.0" type="qcurve" smooth="yes" name="inserted"/>
      <point x="168" y="306"/>
      <point x="217" y="285"/>
      <point x="245" y="285" type="qcurve" name="sv03"/>
      <point x="272" y="285"/>
      <point x="320" y="306"/>
      <point x="338.0" y="324.0" type="qcurve" smooth="yes" name="inserted"/>
      <point x="356" y="342"/>
      <point x="376" y="391"/>
    </contour>
    <contour>
      <point x="462" y="419" type="qcurve" name="dh02"/>
      <point x="462" y="351" name="fh01"/>
      <point x="399" y="229"/>
      <point x="350.0" y="175.5" type="qcurve" smooth="yes" name="inserted"/>
      <point x="301" y="122" name="fh02"/>
      <point x="185" y="30"/>
      <point x="131" y="-9" type="qcurve" name="sh03"/>
      <point x="118" y="7"/>
      <point x="92" y="39"/>
      <point x="79" y="55" type="qcurve" name="ih01"/>
      <point x="144" y="98"/>
      <point x="234" y="173" name="fh03"/>
      <point x="266" y="205" type="qcurve" name="ih02"/>
      <point x="261" y="204"/>
      <point x="250" y="204"/>
      <point x="245" y="204" type="qcurve" name="sv02"/>
      <point x="200" y="204"/>
      <point x="121" y="237"/>
      <point x="91.0" y="266.5" type="qcurve" smooth="yes" name="inserted"/>
      <point x="61" y="296" name="fh04"/>
      <point x="26" y="374"/>
      <point x="26" y="419" type="qcurve" name="dh01"/>
      <point x="26" y="464"/>
      <point x="61" y="543" name="fh05"/>
      <point x="91.0" y="572.5" type="qcurve" smooth="yes" name="inserted"/>
      <point x="121" y="602" name="fv01"/>
      <point x="200" y="636"/>
      <point x="245" y="636" type="qcurve" name="av01"/>
      <point x="290" y="636"/>
      <point x="369" y="601" name="fh06"/>
      <point x="398.5" y="571.5" type="qcurve" smooth="yes" name="inserted"/>
      <point x="428" y="542" name="fh07"/>
      <point x="462" y="463"/>
    </contour>
  </outline>
</glyph>
<glyph name="less" format="1">
  <advance width="680"/>
  <unicode hex="003C"/>
  <outline>
    <contour>
      <point x="553" y="99" type="qcurve" name="sh01"/>
      <point x="553" y="-14" type="line" name="sv01"/>
      <point x="443" y="49"/>
      <point x="226" y="175"/>
      <point x="116" y="238" type="qcurve" name="ah01"/>
      <point x="226" y="301"/>
      <point x="443" y="427"/>
      <point x="553" y="490" type="qcurve" name="sv02"/>
      <point x="553" y="377" type="line" name="sh02"/>
      <point x="493" y="342"/>
      <point x="372" y="273"/>
      <point x="312" y="238" type="qcurve" name="sh03"/>
      <point x="372" y="203"/>
      <point x="493" y="134"/>
    </contour>
  </outline>
</glyph>
<glyph name="equal" format="1">
  <advance width="708"/>
  <unicode hex="003D"/>
  <outline>
    <contour>
      <point x="606" y="193" type="line" name="sh01"/>
      <point x="606" y="112" type="line"/>
      <point x="100" y="112" type="line" name="av01"/>
      <point x="100" y="193" type="line" name="ah01"/>
    </contour>
    <contour>
      <point x="606" y="387" type="line"/>
      <point x="606" y="306" type="line" name="sh02"/>
      <point x="100" y="306" type="line" name="sh03"/>
      <point x="100" y="387" type="line" name="sv01"/>
    </contour>
  </outline>
</glyph>
<glyph name="at" format="1">
  <advance width="990"/>
  <unicode hex="0040"/>
  <outline>
    <contour>
      <point x="368" y="188" type="qcurve" name="sh03"/>
      <point x="368" y="139"/>
      <point x="433" y="72"/>
      <point x="485" y="72" type="qcurve" name="sv01"/>
      <point x="537" y="72"/>
      <point x="602" y="139"/>
      <point x="602" y="188" type="qcurve" name="sh04"/>
      <point x="602" y="238"/>
      <point x="537" y="303"/>
      <point x="485" y="303" type="qcurve" name="sv02"/>
      <point x="433" y="303"/>
      <point x="368" y="238"/>
    </contour>
    <contour>
      <point x="910" y="188" type="qcurve" name="sh01"/>
      <point x="906" y="135"/>
      <point x="865" y="64" name="fh01"/>
      <point x="837.0" y="41.5" type="qcurve" smooth="yes" name="inserted"/>
      <point x="809" y="19"/>
      <point x="745" y="0"/>
      <point x="718" y="0" type="qcurve"/>
      <point x="612" y="0" type="line" name="sh05"/>
      <point x="612" y="20" type="line"/>
      <point x="612" y="40" type="line" name="iv01"/>
      <point x="611" y="37"/>
      <point x="593" y="21" name="fh02"/>
      <point x="576.5" y="13.0" type="qcurve" smooth="yes" name="inserted"/>
      <point x="560" y="5" name="fh03"/>
      <point x="514" y="-9"/>
      <point x="485" y="-9" type="qcurve" name="ab01"/>
      <point x="443" y="-9"/>
      <point x="369" y="22" name="fh04"/>
      <point x="342.0" y="49.0" type="qcurve" smooth="yes" name="inserted"/>
      <point x="315" y="76" name="fh05"/>
      <point x="284" y="147"/>
      <point x="284" y="187" type="qcurve" name="sh02"/>
      <point x="284" y="226"/>
      <point x="315" y="297" name="fh06"/>
      <point x="342.0" y="324.0" type="qcurve" smooth="yes" name="inserted"/>
      <point x="369" y="351" name="fh07"/>
      <point x="443" y="382"/>
      <point x="485" y="382" type="qcurve" name="at01"/>
      <point x="511" y="382"/>
      <point x="556" y="368" name="fh08"/>
      <point x="573.0" y="358.5" type="qcurve" smooth="yes" name="inserted"/>
      <point x="590" y="349" name="fh09"/>
      <point x="610" y="331"/>
      <point x="612" y="328" type="qcurve" name="sh06"/>
      <point x="612" y="339"/>
      <point x="616" y="363"/>
      <point x="616" y="375" type="qcurve" name="at02"/>
      <point x="685" y="375" type="line"/>
      <point x="685" y="81" type="line" name="ih01"/>
      <point x="718" y="81" type="line"/>
      <point x="738" y="81"/>
      <point x="776" y="92"/>
      <point x="791.0" y="104.5" type="qcurve" smooth="yes" name="inserted"/>
      <point x="806" y="117"/>
      <point x="824" y="158"/>
      <point x="826" y="188" type="qcurve" name="sh07"/>
      <point x="826" y="259"/>
      <point x="773" y="383" name="fh10"/>
      <point x="727.0" y="429.5" type="qcurve" smooth="yes" name="inserted"/>
      <point x="681" y="476" name="fv01"/>
      <point x="559" y="529"/>
      <point x="489" y="529" type="qcurve" name="sv04"/>
      <point x="418" y="529"/>
      <point x="295" y="476" name="fh11"/>
      <point x="248.5" y="429.5" type="qcurve" smooth="yes" name="inserted"/>
      <point x="202" y="383" name="fh12"/>
      <point x="149" y="259"/>
      <point x="149" y="188" type="qcurve" name="sh08"/>
      <point x="149" y="117"/>
      <point x="202" y="-6" name="fh13"/>
      <point x="248.5" y="-52.0" type="qcurve" smooth="yes" name="inserted"/>
      <point x="295" y="-98"/>
      <point x="418" y="-151"/>
      <point x="489" y="-151" type="qcurve" name="sv06"/>
      <point x="548" y="-151"/>
      <point x="653" y="-116" name="fh14"/>
      <point x="698" y="-85" type="qcurve" name="sv07"/>
      <point x="711" y="-100"/>
      <point x="735" y="-129"/>
      <point x="748" y="-144" type="qcurve" name="ih02"/>
      <point x="723" y="-166"/>
      <point x="661" y="-199"/>
      <point x="626.5" y="-210.0" type="qcurve" smooth="yes" name="inserted"/>
      <point x="592" y="-221"/>
      <point x="522" y="-232"/>
      <point x="489" y="-232" type="qcurve" name="sv05"/>
      <point x="401" y="-232"/>
      <point x="247" y="-166" name="fh15"/>
      <point x="189.5" y="-109.0" type="qcurve" smooth="yes" name="inserted"/>
      <point x="132" y="-52" name="fh16"/>
      <point x="65" y="102"/>
      <point x="65" y="189" type="qcurve" name="ah01"/>
      <point x="65" y="276"/>
      <point x="132" y="430" name="fh17"/>
      <point x="189.5" y="487.0" type="qcurve" smooth="yes" name="inserted"/>
      <point x="247" y="544" name="fh18"/>
      <point x="401" y="610"/>
      <point x="489" y="610" type="qcurve" name="sv03"/>
      <point x="576" y="610"/>
      <point x="730" y="544" name="fh19"/>
      <point x="787.0" y="487.0" type="qcurve" smooth="yes" name="inserted"/>
      <point x="844" y="430" name="fh20"/>
      <point x="910" y="276"/>
    </contour>
  </outline>
</glyph>
<glyph name="D" format="1">
  <advance width="632"/>
  <unicode hex="0044"/>
  <outline>
    <contour>
      <point x="35" y="80" type="line" name="sh01"/>
      <point x="82" y="80" type="line" name="dh01"/>
      <point x="82" y="621" type="line" name="sv03"/>
      <point x="35" y="621" type="line" name="sh02"/>
      <point x="35" y="700" type="line"/>
      <point x="245" y="700" type="line" name="at01"/>
      <point x="317" y="700"/>
      <point x="445" y="651" name="fh01"/>
      <point x="493.0" y="605.0" type="qcurve" smooth="yes" name="inserted"/>
      <point x="541" y="559"/>
      <point x="597" y="430"/>
      <point x="597" y="349" type="qcurve" name="dh02"/>
      <point x="597" y="290"/>
      <point x="556" y="166"/>
      <point x="510.0" y="115.5" type="qcurve" smooth="yes" name="inserted"/>
      <point x="464" y="65"/>
      <point x="317" y="0"/>
      <point x="211" y="0" type="qcurve" name="ab01"/>
      <point x="35" y="0" type="line"/>
    </contour>
    <contour>
      <point x="165" y="621" type="line"/>
      <point x="165" y="80" type="line" name="sh03"/>
      <point x="235" y="80" type="line" name="sv01"/>
      <point x="294" y="80"/>
      <point x="396" y="118"/>
      <point x="433.5" y="153.5" type="qcurve" smooth="yes" name="inserted"/>
      <point x="471" y="189" name="fh02"/>
      <point x="514" y="288"/>
      <point x="514" y="350" type="qcurve" name="sh04"/>
      <point x="514" y="412"/>
      <point x="471" y="512" name="fv01"/>
      <point x="433.5" y="547.5" type="qcurve" smooth="yes" name="inserted"/>
      <point x="396" y="583"/>
      <point x="294" y="621"/>
      <point x="235" y="621" type="qcurve" name="sv02"/>
    </contour>
  </outline>
</glyph>
<glyph name="F" format="1">
  <advance width="557"/>
  <unicode hex="0046"/>
  <outline>
    <contour>
      <point x="35" y="79" type="line" name="sh01"/>
      <point x="91" y="79" type="line" name="dh01"/>
      <point x="91" y="621" type="line"/>
      <point x="35" y="621" type="line" name="sh02"/>
      <point x="35" y="700" type="line" name="at01"/>
      <point x="522" y="700" type="line"/>
      <point x="522" y="546" type="line" name="dh02"/>
      <point x="443" y="546" type="line" name="sh03"/>
      <point x="443" y="621" type="line"/>
      <point x="174" y="621" type="line" name="sv01"/>
      <point x="174" y="392" type="line" name="sh05"/>
      <point x="483" y="392" type="line"/>
      <point x="483" y="313" type="line" name="ih01"/>
      <point x="174" y="313" type="line" name="sv02"/>
      <point x="174" y="79" type="line" name="sh04"/>
      <point x="277" y="79" type="line" name="sh06"/>
      <point x="277" y="0" type="line"/>
      <point x="35" y="0" type="line" name="ab01"/>
    </contour>
  </outline>
</glyph>
<glyph name="L" format="1">
  <advance width="571"/>
  <unicode hex="004C"/>
  <outline>
    <contour>
      <point x="35" y="79" type="line" name="sh01"/>
      <point x="91" y="79" type="line" name="dh01"/>
      <point x="91" y="621" type="line"/>
      <point x="35" y="621" type="line" name="sh02"/>
      <point x="35" y="700" type="line" name="at01"/>
      <point x="257" y="700" type="line"/>
      <point x="257" y="621" type="line" name="sh04"/>
      <point x="174" y="621" type="line" name="sv01"/>
      <point x="174" y="79" type="line" name="sh03"/>
      <point x="457" y="79" type="line"/>
      <point x="457" y="154" type="line" name="sh05"/>
      <point x="536" y="154" type="line" name="dh02"/>
      <point x="536" y="0" type="line"/>
      <point x="35" y="0" type="line" name="ab01"/>
    </contour>
  </outline>
</glyph>
<glyph name="P" format="1">
  <advance width="517"/>
  <unicode hex="0050"/>
  <outline>
    <contour>
      <point x="35" y="79" type="line" name="sh01"/>
      <point x="80" y="79" type="line" name="dh01"/>
      <point x="80" y="621" type="line" name="sv02"/>
      <point x="35" y="621" type="line" name="sh02"/>
      <point x="35" y="700" type="line" name="at01"/>
      <point x="245" y="700" type="line"/>
      <point x="279" y="700"/>
      <point x="362" y="679"/>
      <point x="398.0" y="656.0" type="qcurve" smooth="yes" name="inserted"/>
      <point x="434" y="633" name="fh01"/>
      <point x="482" y="561"/>
      <point x="482" y="510" type="qcurve" name="dh02"/>
      <point x="482" y="419" name="fh02"/>
      <point x="374" y="312" name="fh03"/>
      <point x="272" y="312" type="qcurve"/>
      <point x="163" y="312" type="line" name="iv01"/>
      <point x="163" y="79" type="line" name="sh03"/>
      <point x="277" y="79" type="line" name="sh04"/>
      <point x="277" y="0" type="line"/>
      <point x="35" y="0" type="line" name="ab01"/>
    </contour>
    <contour>
      <point x="163" y="392" type="line" name="sh05"/>
      <point x="250" y="392" type="line"/>
      <point x="294" y="392"/>
      <point x="351" y="415"/>
      <point x="368.0" y="432.0" type="qcurve" smooth="yes" name="inserted"/>
      <point x="385" y="449"/>
      <point x="399" y="491"/>
      <point x="399" y="510" type="qcurve" name="sh06"/>
      <point x="399" y="532"/>
      <point x="376" y="572"/>
      <point x="356.5" y="587.5" type="qcurve" smooth="yes" name="inserted"/>
      <point x="337" y="603"/>
      <point x="282" y="621"/>
      <point x="251" y="621" type="qcurve"/>
      <point x="163" y="621" type="line" name="sv01"/>
    </contour>
  </outline>
</glyph>
<glyph name="U" format="1">
  <advance width="729"/>
  <unicode hex="0055"/>
  <outline>
    <contour>
      <point x="35" y="700" type="line" name="at01"/>
      <point x="277" y="700" type="line"/>
      <point x="277" y="621" type="line" name="sh02"/>
      <point x="195" y="621" type="line" name="sh01"/>
      <point x="195" y="229" type="line"/>
      <point x="195" y="191"/>
      <point x="220" y="132" name="fh01"/>
      <point x="242.5" y="112.0" type="qcurve" smooth="yes" name="inserted"/>
      <point x="265" y="92"/>
      <point x="327" y="71"/>
      <point x="364" y="71" type="qcurve" name="sv01"/>
      <point x="401" y="71"/>
      <point x="463" y="92"/>
      <point x="485.5" y="112.0" type="qcurve" smooth="yes" name="inserted"/>
      <point x="508" y="132" name="fh02"/>
      <point x="534" y="191"/>
      <point x="534" y="229" type="qcurve"/>
      <point x="534" y="621" type="line" name="sh03"/>
      <point x="452" y="621" type="line" name="sh04"/>
      <point x="452" y="700" type="line" name="sv02"/>
      <point x="694" y="700" type="line"/>
      <point x="694" y="621" type="line" name="sh05"/>
      <point x="617" y="621" type="line" name="dh02"/>
      <point x="617" y="226" type="line"/>
      <point x="617" y="169"/>
      <point x="578" y="81" name="fh03"/>
      <point x="544.0" y="51.5" type="qcurve" smooth="yes" name="inserted"/>
      <point x="510" y="22" name="fh04"/>
      <point x="418" y="-8"/>
      <point x="364" y="-8" type="qcurve" name="ab01"/>
      <point x="310" y="-8"/>
      <point x="218" y="22" name="fh05"/>
      <point x="184.0" y="51.5" type="qcurve" smooth="yes" name="inserted"/>
      <point x="150" y="81" name="fh06"/>
      <point x="112" y="169"/>
      <point x="112" y="226" type="qcurve"/>
      <point x="112" y="621" type="line" name="dh01"/>
      <point x="35" y="621" type="line" name="sh06"/>
    </contour>
  </outline>
</glyph>
<glyph name="V" format="1">
  <advance width="810"/>
  <unicode hex="0056"/>
  <outline>
    <contour>
      <point x="35" y="700" type="line" name="at01"/>
      <point x="277" y="700" type="line"/>
      <point x="277" y="621" type="line" name="sh03"/>
      <point x="205" y="621" type="line" name="sh02"/>
      <point x="252" y="512"/>
      <point x="343" y="294"/>
      <point x="390" y="185" type="qcurve"/>
      <point x="399" y="152" type="line" name="sh04"/>
      <point x="408" y="185" type="line"/>
      <point x="455" y="294"/>
      <point x="546" y="511"/>
      <point x="592" y="621" type="qcurve" name="sh06"/>
      <point x="533" y="621" type="line" name="sh07"/>
      <point x="533" y="700" type="line" name="sv01"/>
      <point x="775" y="700" type="line"/>
      <point x="775" y="621" type="line" name="sh08"/>
      <point x="676" y="621" type="line" name="sh05"/>
      <point x="607" y="456"/>
      <point x="468" y="133"/>
      <point x="399" y="-32" type="qcurve" name="ah01"/>
      <point x="330" y="133"/>
      <point x="191" y="456"/>
      <point x="122" y="621" type="qcurve" name="sh01"/>
      <point x="35" y="621" type="line" name="sh09"/>
    </contour>
  </outline>
</glyph>
<glyph name="W" format="1">
  <advance width="1178"/>
  <unicode hex="0057"/>
  <outline>
    <contour>
      <point x="35" y="700" type="line" name="at01"/>
      <point x="277" y="700" type="line"/>
      <point x="277" y="621" type="line" name="sh03"/>
      <point x="205" y="621" type="line" name="sh02"/>
      <point x="252" y="512"/>
      <point x="343" y="294"/>
      <point x="390" y="185" type="qcurve"/>
      <point x="399" y="152" type="line" name="sh04"/>
      <point x="411" y="197"/>
      <point x="446" y="286" name="fh01"/>
      <point x="465.5" y="330.5" type="qcurve" smooth="yes" name="inserted"/>
      <point x="485" y="375"/>
      <point x="526" y="463"/>
      <point x="544" y="506" type="qcurve" name="ih01"/>
      <point x="532" y="535"/>
      <point x="507" y="592"/>
      <point x="495" y="621" type="qcurve" name="sh06"/>
      <point x="403" y="621" type="line" name="sh07"/>
      <point x="403" y="700" type="line" name="sv01"/>
      <point x="645" y="700" type="line"/>
      <point x="645" y="621" type="line" name="sh09"/>
      <point x="578" y="621" type="line" name="sh08"/>
      <point x="625" y="512"/>
      <point x="716" y="294"/>
      <point x="763" y="185" type="qcurve"/>
      <point x="772" y="152" type="line" name="sh10"/>
      <point x="781" y="185" type="line"/>
      <point x="828" y="294"/>
      <point x="919" y="511"/>
      <point x="965" y="621" type="qcurve" name="sh12"/>
      <point x="901" y="621" type="line" name="sh13"/>
      <point x="901" y="700" type="line" name="sv02"/>
      <point x="1143" y="700" type="line"/>
      <point x="1143" y="621" type="line" name="sh14"/>
      <point x="1049" y="621" type="line" name="sh11"/>
      <point x="980" y="456"/>
      <point x="841" y="133"/>
      <point x="772" y="-32" type="qcurve" name="sh05"/>
      <point x="595" y="385" type="line"/>
      <point x="585" y="420" type="line" name="ih02"/>
      <point x="571" y="364"/>
      <point x="527" y="249"/>
      <point x="501.0" y="192.0" type="qcurve" smooth="yes" name="inserted"/>
      <point x="475" y="135" name="fv01"/>
      <point x="422" y="22"/>
      <point x="399" y="-32" type="qcurve" name="ah01"/>
      <point x="330" y="133"/>
      <point x="191" y="456"/>
      <point x="122" y="621" type="qcurve" name="sh01"/>
      <point x="35" y="621" type="line" name="sh15"/>
    </contour>
  </outline>
</glyph>
<glyph name="X" format="1">
  <advance width="694"/>
  <unicode hex="0058"/>
  <outline>
    <contour>
      <point x="35" y="700" type="line" name="at01"/>
      <point x="277" y="700" type="line"/>
      <point x="277" y="621" type="line" name="sh03"/>
      <point x="222" y="621" type="line" name="sh04"/>
      <point x="250" y="577"/>
      <point x="306" y="492"/>
      <point x="334" y="449" type="qcurve"/>
      <point x="347" y="422" type="line" name="ih05"/>
      <point x="360" y="449" type="line"/>
      <point x="472" y="621" type="line" name="sh06"/>
      <point x="417" y="621" type="line" name="sh08"/>
      <point x="417" y="700" type="line" name="sv01"/>
      <point x="659" y="700" type="line"/>
      <point x="659" y="621" type="line" name="sh09"/>
      <point x="573" y="621" type="line" name="sh10"/>
      <point x="529" y="553"/>
      <point x="443" y="418"/>
      <point x="398" y="351" type="qcurve" name="ih04"/>
      <point x="443" y="282"/>
      <point x="531" y="148"/>
      <point x="576" y="79" type="qcurve" name="ih02"/>
      <point x="659" y="79" type="line" name="dh02"/>
      <point x="659" y="0" type="line"/>
      <point x="417" y="0" type="line" name="sv02"/>
      <point x="417" y="79" type="line" name="sh07"/>
      <point x="472" y="79" type="line" name="sh05"/>
      <point x="356" y="258" type="line"/>
      <point x="352" y="265"/>
      <point x="346" y="279" name="iv01"/>
      <point x="342" y="286" type="qcurve" name="ih06"/>
      <point x="329" y="258" type="line"/>
      <point x="300" y="213"/>
      <point x="242" y="124"/>
      <point x="213" y="79" type="qcurve" name="sh01"/>
      <point x="277" y="79" type="line" name="sh02"/>
      <point x="277" y="0" type="line"/>
      <point x="35" y="0" type="line" name="ab01"/>
      <point x="35" y="79" type="line" name="dh01"/>
      <point x="110" y="79" type="line" name="ih01"/>
      <point x="292" y="357" type="line" name="ih03"/>
      <point x="120" y="621" type="line" name="sh11"/>
      <point x="35" y="621" type="line" name="sh12"/>
    </contour>
  </outline>
</glyph>
<glyph name="bracketleft" format="1">
  <advance width="338"/>
  <unicode hex="005B"/>
  <outline>
    <contour>
      <point x="83" y="-149" type="line" name="ah01"/>
      <point x="83" y="746" type="line"/>
      <point x="275" y="746" type="line" name="at01"/>
      <point x="275" y="665" type="line" name="sh02"/>
      <point x="166" y="665" type="line"/>
      <point x="166" y="-68" type="line" name="sh03"/>
      <point x="275" y="-68" type="line" name="sh01"/>
      <point x="275" y="-149" type="line" name="av01"/>
    </contour>
  </outline>
</glyph>
<glyph name="bracketright" format="1">
  <advance width="342"/>
  <unicode hex="005D"/>
  <outline>
    <contour>
      <point x="251" y="746" type="line"/>
      <point x="251" y="-149" type="line" name="ah01"/>
      <point x="59" y="-149" type="line" name="sh01"/>
      <point x="59" y="-68" type="line" name="sv01"/>
      <point x="168" y="-68" type="line" name="sh02"/>
      <point x="168" y="665" type="line"/>
      <point x="59" y="665" type="line" name="sh03"/>
      <point x="59" y="746" type="line" name="at01"/>
    </contour>
  </outline>
</glyph>
<glyph name="asciicircum" format="1">
  <advance width="470"/>
  <unicode hex="005E"/>
  <outline>
    <contour>
      <point x="232" y="660" type="qcurve" name="sv01"/>
      <point x="262" y="615"/>
      <point x="322" y="524"/>
      <point x="352" y="479" type="qcurve" name="sh01"/>
      <point x="293" y="479" type="line" name="sh02"/>
      <point x="278" y="497"/>
      <point x="247" y="533"/>
      <point x="232" y="551" type="qcurve" name="sv02"/>
      <point x="217" y="533"/>
      <point x="186" y="497"/>
      <point x="171" y="479" type="qcurve" name="sh03"/>
      <point x="112" y="479" type="line" name="ah01"/>
      <point x="142" y="524"/>
      <point x="202" y="615"/>
    </contour>
  </outline>
</glyph>
<glyph name="underscore" format="1">
  <advance width="600"/>
  <unicode hex="005F"/>
  <outline>
    <contour>
      <point x="500" y="0" type="line" name="sh01"/>
      <point x="100" y="0" type="line" name="ah01"/>
      <point x="100" y="81" type="line" name="sv01"/>
      <point x="500" y="81" type="line"/>
    </contour>
  </outline>
</glyph>
<glyph name="b" format="1">
  <advance width="547"/>
  <unicode hex="0062"/>
  <outline>
    <contour>
      <point x="35" y="79" type="line" name="sh01"/>
      <point x="111" y="79" type="line" name="dh01"/>
      <point x="111" y="671" type="line"/>
      <point x="45" y="671" type="line" name="sh02"/>
      <point x="45" y="750" type="line" name="at01"/>
      <point x="194" y="750" type="line" name="sh03"/>
      <point x="194" y="362" type="line"/>
      <point x="192" y="354"/>
      <point x="186" y="339"/>
      <point x="184" y="331" type="qcurve" name="iv01"/>
      <point x="185" y="334"/>
      <point x="206" y="352" name="fh01"/>
      <point x="223.0" y="361.0" type="qcurve" smooth="yes" name="inserted"/>
      <point x="240" y="370" name="fv01"/>
      <point x="285" y="384"/>
      <point x="311" y="384" type="qcurve" name="at02"/>
      <point x="353" y="384"/>
      <point x="427" y="353" name="fh02"/>
      <point x="454.0" y="326.0" type="qcurve" smooth="yes" name="inserted"/>
      <point x="481" y="299" name="fh03"/>
      <point x="512" y="228"/>
      <point x="512" y="188" type="qcurve" name="dh02"/>
      <point x="512" y="148"/>
      <point x="481" y="76" name="fh04"/>
      <point x="454.0" y="49.0" type="qcurve" smooth="yes" name="inserted"/>
      <point x="427" y="22" name="fh05"/>
      <point x="353" y="-9"/>
      <point x="311" y="-9" type="qcurve" name="ab02"/>
      <point x="282" y="-9"/>
      <point x="236" y="4" name="fh06"/>
      <point x="219.5" y="12.5" type="qcurve" smooth="yes" name="inserted"/>
      <point x="203" y="21" name="fh07"/>
      <point x="185" y="37"/>
      <point x="184" y="40" type="qcurve" name="iv02"/>
      <point x="184" y="20" type="line"/>
      <point x="184" y="0" type="line" name="sh04"/>
      <point x="35" y="0" type="line" name="ab01"/>
    </contour>
    <contour>
      <point x="428" y="188" type="qcurve" name="sh05"/>
      <point x="428" y="238"/>
      <point x="363" y="303"/>
      <point x="311" y="303" type="qcurve" name="sv01"/>
      <point x="259" y="303"/>
      <point x="194" y="238"/>
      <point x="194" y="188" type="qcurve" name="sh06"/>
      <point x="194" y="139"/>
      <point x="259" y="72"/>
      <point x="311" y="72" type="qcurve" name="sv02"/>
      <point x="363" y="72"/>
      <point x="428" y="139"/>
    </contour>
  </outline>
</glyph>
<glyph name="c" format="1">
  <advance width="397"/>
  <unicode hex="0063"/>
  <outline>
    <contour>
      <point x="360" y="34" type="line" name="sh01"/>
      <point x="334" y="14"/>
      <point x="271" y="-9"/>
      <point x="235" y="-9" type="qcurve" name="ab01"/>
      <point x="193" y="-9"/>
      <point x="120" y="22" name="fh01"/>
      <point x="93.0" y="49.0" type="qcurve" smooth="yes" name="inserted"/>
      <point x="66" y="76" name="fh02"/>
      <point x="35" y="147"/>
      <point x="35" y="188" type="qcurve" name="dh01"/>
      <point x="35" y="228"/>
      <point x="66" y="300" name="fh03"/>
      <point x="93.0" y="326.5" type="qcurve" smooth="yes" name="inserted"/>
      <point x="120" y="353" name="fh04"/>
      <point x="193" y="384"/>
      <point x="235" y="384" type="qcurve" name="at01"/>
      <point x="272" y="384"/>
      <point x="336" y="361"/>
      <point x="362" y="341" type="qcurve"/>
      <point x="362" y="225" type="line" name="dh02"/>
      <point x="288" y="225" type="line" name="sh02"/>
      <point x="288" y="292" type="line"/>
      <point x="275.5" y="297.5" name="inserted"/>
      <point x="249.0" y="303.0"/>
      <point x="235" y="303" type="qcurve" name="sv01"/>
      <point x="183" y="303"/>
      <point x="118" y="238"/>
      <point x="118" y="188" type="qcurve" name="sh03"/>
      <point x="118" y="139"/>
      <point x="183" y="72"/>
      <point x="235" y="72" type="qcurve" name="sv02"/>
      <point x="257.0" y="72.0" name="inserted"/>
      <point x="294.5" y="84.5"/>
      <point x="310" y="97" type="qcurve" name="sv03"/>
    </contour>
  </outline>
</glyph>
<glyph name="f" format="1">
  <advance width="336"/>
  <unicode hex="0066"/>
  <outline>
    <contour>
      <point x="35" y="79" type="line" name="sh01"/>
      <point x="96" y="79" type="line"/>
      <point x="96" y="294" type="line" name="dh01"/>
      <point x="35" y="294" type="line" name="sh02"/>
      <point x="35" y="375" type="line"/>
      <point x="95" y="375" type="line" name="sh03"/>
      <point x="95" y="517" type="line"/>
      <point x="95" y="573"/>
      <point x="132" y="659" name="fh01"/>
      <point x="164.0" y="688.5" type="qcurve" smooth="yes" name="inserted"/>
      <point x="196" y="718"/>
      <point x="285" y="749"/>
      <point x="336" y="751" type="qcurve" name="at01"/>
      <point x="336" y="672" type="line" name="dh02"/>
      <point x="267" y="668" name="fh02"/>
      <point x="178" y="588" name="fv01"/>
      <point x="178" y="514" type="qcurve"/>
      <point x="178" y="375" type="line" name="sh05"/>
      <point x="296" y="375" type="line" name="ih01"/>
      <point x="296" y="294" type="line"/>
      <point x="178" y="294" type="line" name="sh04"/>
      <point x="178" y="79" type="line" name="sv01"/>
      <point x="257" y="79" type="line" name="sh06"/>
      <point x="257" y="0" type="line"/>
      <point x="35" y="0" type="line" name="ab01"/>
    </contour>
  </outline>
</glyph>
<glyph name="g" format="1">
  <advance width="547"/>
  <unicode hex="0067"/>
  <outline>
    <contour>
      <point x="367" y="375" type="qcurve" name="sh02"/>
      <point x="512" y="375" type="line" name="at01"/>
      <point x="512" y="296" type="line" name="sh03"/>
      <point x="436" y="296" type="line"/>
      <point x="436" y="-60" type="line" name="dh02"/>
      <point x="436" y="-100"/>
      <point x="405" y="-169" name="fh01"/>
      <point x="378.0" y="-194.5" type="qcurve" smooth="yes" name="inserted"/>
      <point x="351" y="-220" name="fh02"/>
      <point x="279" y="-250"/>
      <point x="237" y="-250" type="qcurve" name="ab02"/>
      <point x="192" y="-250"/>
      <point x="108" y="-211"/>
      <point x="78" y="-190" type="qcurve" name="ih01"/>
      <point x="133" y="-122" type="line" name="sv01"/>
      <point x="153" y="-137"/>
      <point x="206" y="-164"/>
      <point x="235" y="-164" type="qcurve" name="sv02"/>
      <point x="261" y="-164"/>
      <point x="304" y="-146"/>
      <point x="320.0" y="-130.5" type="qcurve" smooth="yes" name="inserted"/>
      <point x="336" y="-115"/>
      <point x="353" y="-72"/>
      <point x="353" y="-47" type="qcurve" name="sh01"/>
      <point x="353" y="20" type="line"/>
      <point x="355" y="24"/>
      <point x="359" y="33"/>
      <point x="361" y="38" type="qcurve" name="iv01"/>
      <point x="358" y="33"/>
      <point x="338" y="18" name="fh03"/>
      <point x="322.0" y="10.5" type="qcurve" smooth="yes" name="inserted"/>
      <point x="306" y="3"/>
      <point x="263" y="-8"/>
      <point x="236" y="-8" type="qcurve" name="ab01"/>
      <point x="194" y="-8"/>
      <point x="120" y="23" name="fv01"/>
      <point x="93.0" y="49.5" type="qcurve" smooth="yes" name="inserted"/>
      <point x="66" y="76" name="fh04"/>
      <point x="35" y="147"/>
      <point x="35" y="187" type="qcurve" name="dh01"/>
      <point x="35" y="226"/>
      <point x="66" y="298" name="fh05"/>
      <point x="93.0" y="325.0" type="qcurve" smooth="yes" name="inserted"/>
      <point x="120" y="352" name="fh06"/>
      <point x="194" y="384"/>
      <point x="236" y="384" type="qcurve" name="at02"/>
      <point x="263" y="384"/>
      <point x="309" y="368" name="fh07"/>
      <point x="326.0" y="358.5" type="qcurve" smooth="yes" name="inserted"/>
      <point x="343" y="349"/>
      <point x="363" y="331"/>
      <point x="363" y="328" type="qcurve" name="iv02"/>
      <point x="363" y="339"/>
      <point x="367" y="363"/>
    </contour>
    <contour>
      <point x="119" y="188" type="qcurve" name="sh04"/>
      <point x="119" y="139"/>
      <point x="184" y="72"/>
      <point x="236" y="72" type="qcurve" name="sv03"/>
      <point x="288" y="72"/>
      <point x="353" y="139"/>
      <point x="353" y="188" type="qcurve" name="sh05"/>
      <point x="353" y="238"/>
      <point x="288" y="303"/>
      <point x="236" y="303" type="qcurve" name="sv04"/>
      <point x="184" y="303"/>
      <point x="119" y="238"/>
    </contour>
  </outline>
</glyph>
<glyph name="i" format="1">
  <advance width="292"/>
  <unicode hex="0069"/>
  <outline>
    <contour>
      <point x="35" y="79" type="line" name="sh01"/>
      <point x="105" y="79" type="line" name="dh01"/>
      <point x="105" y="296" type="line"/>
      <point x="35" y="296" type="line" name="sh02"/>
      <point x="35" y="375" type="line" name="at01"/>
      <point x="188" y="375" type="line"/>
      <point x="188" y="79" type="line" name="dh02"/>
      <point x="257" y="79" type="line" name="sh03"/>
      <point x="257" y="0" type="line"/>
      <point x="35" y="0" type="line" name="ab01"/>
    </contour>
    <contour>
      <point x="96" y="520" type="qcurve" name="sh05"/>
      <point x="96" y="543"/>
      <point x="128" y="573"/>
      <point x="148" y="573" type="qcurve" name="sv01"/>
      <point x="167" y="573"/>
      <point x="199" y="543"/>
      <point x="199" y="520" type="qcurve" name="sh04"/>
      <point x="199" y="497"/>
      <point x="167" y="468"/>
      <point x="148" y="468" type="qcurve" name="av01"/>
      <point x="128" y="468"/>
      <point x="96" y="497"/>
    </contour>
  </outline>
</glyph>
<glyph name="j" format="1">
  <advance width="212"/>
  <unicode hex="006A"/>
  <outline>
    <contour>
      <point x="35" y="375" type="line" name="at01"/>
      <point x="177" y="375" type="line"/>
      <point x="177" y="0" type="line" name="dh02"/>
      <point x="177" y="-61"/>
      <point x="135" y="-152"/>
      <point x="97" y="-181" type="qcurve" name="av01"/>
      <point x="40" y="-119" type="line" name="sh01"/>
      <point x="66" y="-99" name="sv01"/>
      <point x="94" y="-39"/>
      <point x="94" y="3" type="qcurve" name="dh01"/>
      <point x="94" y="296" type="line"/>
      <point x="35" y="296" type="line" name="sh02"/>
    </contour>
    <contour>
      <point x="87" y="520" type="qcurve" name="sh04"/>
      <point x="87" y="543"/>
      <point x="119" y="573"/>
      <point x="139" y="573" type="qcurve" name="sv02"/>
      <point x="158" y="573"/>
      <point x="190" y="543"/>
      <point x="190" y="520" type="qcurve" name="sh03"/>
      <point x="190" y="497"/>
      <point x="158" y="468"/>
      <point x="139" y="468" type="qcurve" name="av02"/>
      <point x="119" y="468"/>
      <point x="87" y="497"/>
    </contour>
  </outline>
</glyph>
<glyph name="k" format="1">
  <advance width="527"/>
  <unicode hex="006B"/>
  <outline>
    <contour>
      <point x="291" y="79" type="line" name="sh03"/>
      <point x="302" y="79" type="line" name="sh02"/>
      <point x="287" y="99"/>
      <point x="257" y="140"/>
      <point x="243" y="160" type="qcurve" name="ih01"/>
      <point x="194" y="114" type="line" name="iv01"/>
      <point x="194" y="79" type="line" name="dh02"/>
      <point x="257" y="79" type="line" name="sh06"/>
      <point x="257" y="0" type="line"/>
      <point x="35" y="0" type="line" name="ab01"/>
      <point x="35" y="79" type="line" name="sh07"/>
      <point x="111" y="79" type="line" name="dh01"/>
      <point x="111" y="671" type="line"/>
      <point x="45" y="671" type="line" name="sh08"/>
      <point x="45" y="750" type="line" name="at01"/>
      <point x="194" y="750" type="line"/>
      <point x="194" y="211" type="line" name="sh04"/>
      <point x="285" y="296" type="line" name="sh09"/>
      <point x="248" y="296" type="line" name="sh10"/>
      <point x="248" y="375" type="line" name="at02"/>
      <point x="449" y="375" type="line"/>
      <point x="449" y="296" type="line" name="sh11"/>
      <point x="387" y="296" type="line" name="sh05"/>
      <point x="365" y="276"/>
      <point x="323" y="234"/>
      <point x="301" y="214" type="qcurve" name="ih02"/>
      <point x="325" y="180"/>
      <point x="374" y="113"/>
      <point x="399" y="79" type="qcurve" name="sh01"/>
      <point x="492" y="79" type="line" name="sh12"/>
      <point x="492" y="0" type="line"/>
      <point x="291" y="0" type="line" name="sv01"/>
    </contour>
  </outline>
</glyph>
<glyph name="n" format="1">
  <advance width="580"/>
  <unicode hex="006E"/>
  <outline>
    <contour>
      <point x="323" y="79" type="line" name="sh02"/>
      <point x="400" y="79" type="line" name="sh01"/>
      <point x="400" y="234" type="line"/>
      <point x="398" y="261"/>
      <point x="363" y="300" name="fh01"/>
      <point x="325" y="302" type="qcurve" name="sv01"/>
      <point x="299" y="302"/>
      <point x="252" y="284"/>
      <point x="234.0" y="268.0" type="qcurve" smooth="yes" name="inserted"/>
      <point x="216" y="252"/>
      <point x="194" y="208"/>
      <point x="194" y="182" type="qcurve" name="iv01"/>
      <point x="194" y="79" type="line" name="sh03"/>
      <point x="257" y="79" type="line" name="sh04"/>
      <point x="257" y="0" type="line"/>
      <point x="35" y="0" type="line" name="ab01"/>
      <point x="35" y="79" type="line" name="sh05"/>
      <point x="111" y="79" type="line" name="dh01"/>
      <point x="111" y="296" type="line"/>
      <point x="45" y="296" type="line" name="sh06"/>
      <point x="45" y="375" type="line" name="at01"/>
      <point x="184" y="375" type="line"/>
      <point x="184" y="366" type="line"/>
      <point x="186" y="342"/>
      <point x="189" y="303"/>
      <point x="191" y="279" type="qcurve" name="sh07"/>
      <point x="211" y="327"/>
      <point x="300" y="384"/>
      <point x="354" y="384" type="qcurve" name="at02"/>
      <point x="413" y="384" name="fh02"/>
      <point x="481" y="322" name="fh03"/>
      <point x="483" y="272" type="qcurve"/>
      <point x="483" y="79" type="line" name="dh02"/>
      <point x="545" y="79" type="line" name="sh08"/>
      <point x="545" y="0" type="line"/>
      <point x="323" y="0" type="line" name="sv02"/>
    </contour>
  </outline>
</glyph>
<glyph name="o" format="1">
  <advance width="471"/>
  <unicode hex="006F"/>
  <outline>
    <contour>
      <point x="35" y="188" type="qcurve" name="dh01"/>
      <point x="35" y="228"/>
      <point x="66" y="300" name="fh01"/>
      <point x="93.0" y="326.5" type="qcurve" smooth="yes" name="inserted"/>
      <point x="120" y="353" name="fh02"/>
      <point x="193" y="384"/>
      <point x="235" y="384" type="qcurve" name="at01"/>
      <point x="277" y="384"/>
      <point x="351" y="353" name="fh03"/>
      <point x="378.0" y="326.5" type="qcurve" smooth="yes" name="inserted"/>
      <point x="405" y="300" name="fh04"/>
      <point x="436" y="228"/>
      <point x="436" y="188" type="qcurve" name="dh02"/>
      <point x="436" y="147"/>
      <point x="405" y="76" name="fh05"/>
      <point x="378.0" y="49.0" type="qcurve" smooth="yes" name="inserted"/>
      <point x="351" y="22" name="fh06"/>
      <point x="277" y="-9"/>
      <point x="235" y="-9" type="qcurve" name="ab01"/>
      <point x="193" y="-9"/>
      <point x="120" y="22" name="fh07"/>
      <point x="93.0" y="49.0" type="qcurve" smooth="yes" name="inserted"/>
      <point x="66" y="76" name="fh08"/>
      <point x="35" y="147"/>
    </contour>
    <contour>
      <point x="118" y="187" type="qcurve" name="sh01"/>
      <point x="118" y="163"/>
      <point x="136" y="121"/>
      <point x="151.5" y="105.5" type="qcurve" smooth="yes" name="inserted"/>
      <point x="167" y="90"/>
      <point x="209" y="72"/>
      <point x="233" y="72" type="qcurve" name="sv01"/>
      <point x="257" y="72"/>
      <point x="299" y="90"/>
      <point x="315.0" y="105.5" type="qcurve" smooth="yes" name="inserted"/>
      <point x="331" y="121"/>
      <point x="349" y="163"/>
      <point x="349" y="187" type="qcurve" name="sh02"/>
      <point x="349" y="211"/>
      <point x="331" y="253"/>
      <point x="315.0" y="269.0" type="qcurve" smooth="yes" name="inserted"/>
      <point x="299" y="285"/>
      <point x="257" y="303"/>
      <point x="233" y="303" type="qcurve" name="sv02"/>
      <point x="209" y="303"/>
      <point x="167" y="285"/>
      <point x="151.5" y="269.0" type="qcurve" smooth="yes" name="inserted"/>
      <point x="136" y="253"/>
      <point x="118" y="211"/>
    </contour>
  </outline>
</glyph>
<glyph name="s" format="1">
  <advance width="332"/>
  <unicode hex="0073"/>
  <outline>
    <contour>
      <point x="121" y="120" type="line" name="sh02"/>
      <point x="121" y="81" type="line"/>
      <point x="133" y="76"/>
      <point x="156" y="73"/>
      <point x="173" y="73" type="qcurve"/>
      <point x="174" y="73" name="sv01"/>
      <point x="187" y="74"/>
      <point x="195.0" y="77.5" type="qcurve" smooth="yes" name="inserted"/>
      <point x="203" y="81"/>
      <point x="216" y="95"/>
      <point x="217" y="109" type="qcurve" name="sh03"/>
      <point x="218" y="127"/>
      <point x="196" y="146"/>
      <point x="178.5" y="152.5" type="qcurve" smooth="yes" name="inserted"/>
      <point x="161" y="159" name="iv01"/>
      <point x="119" y="172"/>
      <point x="100.5" y="183.5" type="qcurve" smooth="yes" name="inserted"/>
      <point x="82" y="195" name="fh01"/>
      <point x="58" y="237" name="fh02"/>
      <point x="58" y="272" type="qcurve" name="dh01"/>
      <point x="58" y="303"/>
      <point x="82" y="345" name="fh03"/>
      <point x="100.0" y="358.5" type="qcurve" smooth="yes" name="inserted"/>
      <point x="118" y="372"/>
      <point x="160" y="384"/>
      <point x="177" y="384" type="qcurve" name="at01"/>
      <point x="187" y="384"/>
      <point x="216" y="380"/>
      <point x="231.0" y="375.0" type="qcurve" smooth="yes" name="inserted"/>
      <point x="246" y="370"/>
      <point x="275" y="354"/>
      <point x="286" y="342" type="qcurve"/>
      <point x="286" y="255" type="line" name="ih01"/>
      <point x="212" y="255" type="line" name="sh04"/>
      <point x="212" y="298" type="line"/>
      <point x="204.5" y="300.5" name="inserted"/>
      <point x="189.5" y="303.0"/>
      <point x="182" y="303" type="qcurve" name="sv02"/>
      <point x="160" y="303"/>
      <point x="140" y="284"/>
      <point x="142" y="268" type="qcurve" name="sh05"/>
      <point x="144" y="256"/>
      <point x="170" y="241"/>
      <point x="187.5" y="234.0" type="qcurve" smooth="yes" name="inserted"/>
      <point x="205" y="227" name="iv02"/>
      <point x="245" y="209" name="fh04"/>
      <point x="262.0" y="195.5" type="qcurve" smooth="yes" name="inserted"/>
      <point x="279" y="182" name="fh05"/>
      <point x="301" y="141" name="fh06"/>
      <point x="301" y="110" type="qcurve" name="dh02"/>
      <point x="301" y="96"/>
      <point x="290" y="56"/>
      <point x="276.0" y="37.0" type="qcurve" smooth="yes" name="inserted"/>
      <point x="262" y="18" name="fh07"/>
      <point x="212" y="-8"/>
      <point x="172" y="-8" type="qcurve" name="ab01"/>
      <point x="135" y="-8"/>
      <point x="67" y="11"/>
      <point x="47" y="33" type="qcurve"/>
      <point x="47" y="120" type="line" name="sh01"/>
    </contour>
  </outline>
</glyph>
<glyph name="t" format="1">
  <advance width="335"/>
  <unicode hex="0074"/>
  <outline>
    <contour>
      <point x="119" y="619" type="line" name="sv01"/>
      <point x="202" y="619" type="line"/>
      <point x="202" y="375" type="line" name="sh01"/>
      <point x="300" y="375" type="line"/>
      <point x="300" y="294" type="line" name="sh02"/>
      <point x="202" y="294" type="line" name="dh02"/>
      <point x="202" y="79" type="line" name="sv02"/>
      <point x="277" y="79" type="line" name="sh03"/>
      <point x="277" y="0" type="line"/>
      <point x="119" y="0" type="line" name="ab01"/>
      <point x="119" y="294" type="line" name="dh01"/>
      <point x="35" y="294" type="line" name="sh04"/>
      <point x="35" y="375" type="line"/>
      <point x="119" y="375" type="line" name="sh05"/>
    </contour>
  </outline>
</glyph>
<glyph name="u" format="1">
  <advance width="570"/>
  <unicode hex="0075"/>
  <outline>
    <contour>
      <point x="35" y="375" type="line" name="at01"/>
      <point x="184" y="375" type="line" name="sh01"/>
      <point x="184" y="141" type="line"/>
      <point x="186" y="114"/>
      <point x="221" y="75" name="fh01"/>
      <point x="259" y="73" type="qcurve" name="sv01"/>
      <point x="285" y="73"/>
      <point x="332" y="91"/>
      <point x="350.0" y="107.0" type="qcurve" smooth="yes" name="inserted"/>
      <point x="368" y="123"/>
      <point x="390" y="167"/>
      <point x="390" y="193" type="qcurve" name="iv01"/>
      <point x="390" y="296" type="line" name="sh02"/>
      <point x="324" y="296" type="line" name="sh03"/>
      <point x="324" y="375" type="line" name="sv02"/>
      <point x="473" y="375" type="line" name="dh02"/>
      <point x="473" y="70" type="line"/>
      <point x="535" y="70" type="line" name="sh04"/>
      <point x="535" y="0" type="line" name="ab01"/>
      <point x="390" y="0" type="line"/>
      <point x="390" y="51" type="line" name="sh05"/>
      <point x="393" y="96" type="line" name="iv02"/>
      <point x="373" y="48"/>
      <point x="284" y="-9"/>
      <point x="230" y="-9" type="qcurve" name="ab02"/>
      <point x="171" y="-9"/>
      <point x="103" y="53" name="fh02"/>
      <point x="101" y="103" type="qcurve"/>
      <point x="101" y="296" type="line" name="dh01"/>
      <point x="35" y="296" type="line" name="sh06"/>
    </contour>
  </outline>
</glyph>
<glyph name="y" format="1">
  <advance width="617"/>
  <unicode hex="0079"/>
  <outline>
    <contour>
      <point x="92" y="-171" type="line" name="sh02"/>
      <point x="182" y="-171" type="line" name="sh01"/>
      <point x="203" y="-128"/>
      <point x="246" y="-42"/>
      <point x="268" y="0" type="qcurve" name="ih03"/>
      <point x="230" y="75"/>
      <point x="157" y="221"/>
      <point x="119" y="296" type="qcurve" name="ih04"/>
      <point x="35" y="296" type="line" name="dh01"/>
      <point x="35" y="375" type="line" name="at01"/>
      <point x="257" y="375" type="line"/>
      <point x="257" y="296" type="line" name="sh05"/>
      <point x="204" y="296" type="line" name="sh04"/>
      <point x="233" y="241"/>
      <point x="291" y="130"/>
      <point x="310" y="74" type="qcurve" name="ih05"/>
      <point x="329" y="130"/>
      <point x="386" y="241"/>
      <point x="415" y="296" type="qcurve" name="sh03"/>
      <point x="353" y="296" type="line" name="sh06"/>
      <point x="353" y="375" type="line" name="sv01"/>
      <point x="582" y="375" type="line"/>
      <point x="582" y="296" type="line" name="dh02"/>
      <point x="500" y="296" type="line" name="ih02"/>
      <point x="441" y="178"/>
      <point x="324" y="-53"/>
      <point x="265" y="-171" type="qcurve" name="ih01"/>
      <point x="314" y="-171" type="line" name="sh07"/>
      <point x="314" y="-250" type="line"/>
      <point x="92" y="-250" type="line" name="ab01"/>
    </contour>
  </outline>
</glyph>
<glyph name="braceleft" format="1">
  <advance width="320"/>
  <unicode hex="007B"/>
  <outline>
    <contour>
      <point x="30" y="256" type="qcurve" name="sh01"/>
      <point x="30" y="337" type="line" name="iv01"/>
      <point x="54" y="338"/>
      <point x="85" y="365"/>
      <point x="94.0" y="385.0" type="qcurve" smooth="yes" name="inserted"/>
      <point x="103" y="405"/>
      <point x="109" y="452"/>
      <point x="109" y="472" type="qcurve" name="sh02"/>
      <point x="109" y="628" type="line"/>
      <point x="109" y="674"/>
      <point x="128" y="723" name="fh01"/>
      <point x="144.0" y="733.5" type="qcurve" smooth="yes" name="inserted"/>
      <point x="160" y="744"/>
      <point x="203" y="746"/>
      <point x="227" y="746" type="qcurve"/>
      <point x="290" y="746" type="line" name="at01"/>
      <point x="290" y="665" type="line" name="sh04"/>
      <point x="246" y="665" type="line"/>
      <point x="231" y="665"/>
      <point x="211" y="657"/>
      <point x="205.0" y="645.5" type="qcurve" smooth="yes" name="inserted"/>
      <point x="199" y="634"/>
      <point x="194" y="594"/>
      <point x="194" y="562" type="qcurve"/>
      <point x="194" y="433" type="line" name="sh06"/>
      <point x="194" y="402"/>
      <point x="181" y="357"/>
      <point x="171.0" y="341.0" type="qcurve" smooth="yes" name="inserted"/>
      <point x="161" y="325"/>
      <point x="139" y="304"/>
      <point x="129" y="298" type="qcurve" name="ih01"/>
      <point x="139" y="292"/>
      <point x="161" y="271"/>
      <point x="171.0" y="254.5" type="qcurve" smooth="yes" name="inserted"/>
      <point x="181" y="238"/>
      <point x="194" y="194"/>
      <point x="194" y="164" type="qcurve" name="sh05"/>
      <point x="194" y="35" type="line"/>
      <point x="194" y="3"/>
      <point x="199" y="-38"/>
      <point x="205.0" y="-49.0" type="qcurve" smooth="yes" name="inserted"/>
      <point x="211" y="-60"/>
      <point x="231" y="-68"/>
      <point x="246" y="-68" type="qcurve"/>
      <point x="290" y="-68" type="line" name="sh03"/>
      <point x="290" y="-149" type="line" name="av01"/>
      <point x="227" y="-149" type="line"/>
      <point x="204" y="-149"/>
      <point x="161" y="-147"/>
      <point x="144.5" y="-136.5" type="qcurve" smooth="yes" name="inserted"/>
      <point x="128" y="-126" name="fh02"/>
      <point x="109" y="-78"/>
      <point x="109" y="-31" type="qcurve"/>
      <point x="109" y="121" type="line" name="ah01"/>
      <point x="109" y="141"/>
      <point x="103" y="188"/>
      <point x="94.0" y="208.0" type="qcurve" smooth="yes" name="inserted"/>
      <point x="85" y="228"/>
      <point x="54" y="255"/>
    </contour>
  </outline>
</glyph>
<glyph name="cent" format="1">
  <advance width="385"/>
  <unicode hex="00A2"/>
  <outline>
    <contour>
      <point x="311" y="97" type="qcurve" name="sv01"/>
      <point x="361" y="34" type="line" name="sh01"/>
      <point x="339" y="17"/>
      <point x="293" y="-2"/>
      <point x="263" y="-7" type="qcurve" name="sh03"/>
      <point x="263" y="-68" type="line" name="sv02"/>
      <point x="179" y="-68" type="line"/>
      <point x="179" y="0" type="line" name="sh04"/>
      <point x="148" y="9" name="fh01"/>
      <point x="95" y="45" name="fh02"/>
      <point x="76.0" y="69.5" type="qcurve" smooth="yes" name="inserted"/>
      <point x="57" y="94" name="fh03"/>
      <point x="36" y="155"/>
      <point x="36" y="188" type="qcurve" name="dh01"/>
      <point x="36" y="221"/>
      <point x="57" y="281" name="fh04"/>
      <point x="76.0" y="306.0" type="qcurve" smooth="yes" name="inserted"/>
      <point x="95" y="331" name="fh05"/>
      <point x="148" y="367" name="fv01"/>
      <point x="179" y="376" type="qcurve" name="sh05"/>
      <point x="179" y="438" type="line"/>
      <point x="263" y="438" type="line" name="sv03"/>
      <point x="263" y="382" type="line" name="sh06"/>
      <point x="292" y="379"/>
      <point x="342" y="357"/>
      <point x="363" y="341" type="qcurve"/>
      <point x="362" y="340" type="line"/>
      <point x="362" y="311" type="line"/>
      <point x="362" y="225" type="line" name="dh02"/>
      <point x="288" y="225" type="line" name="sh07"/>
      <point x="288" y="292" type="line"/>
      <point x="282" y="295"/>
      <point x="270" y="298"/>
      <point x="263" y="300" type="qcurve" name="sv04"/>
      <point x="263" y="74" type="line" name="sh02"/>
      <point x="276" y="77"/>
      <point x="301" y="89"/>
    </contour>
    <contour>
      <point x="119" y="188" type="qcurve" name="sh08"/>
      <point x="119" y="154"/>
      <point x="151" y="100"/>
      <point x="179" y="85" type="qcurve" name="ih01"/>
      <point x="179" y="289" type="line" name="sv05"/>
      <point x="151" y="275"/>
      <point x="119" y="222"/>
    </contour>
  </outline>
</glyph>
<glyph name="sterling" format="1">
  <advance width="574"/>
  <unicode hex="00A3"/>
  <outline>
    <contour>
      <point x="547" y="0" type="line" name="ab01"/>
      <point x="29" y="0" type="line"/>
      <point x="29" y="81" type="line" name="sh01"/>
      <point x="73" y="81" type="line"/>
      <point x="89" y="81"/>
      <point x="109" y="88"/>
      <point x="115.0" y="99.0" type="qcurve" smooth="yes" name="inserted"/>
      <point x="121" y="110"/>
      <point x="125" y="149"/>
      <point x="125" y="181" type="qcurve"/>
      <point x="125" y="273" type="line" name="dh01"/>
      <point x="60" y="273" type="line" name="sh02"/>
      <point x="60" y="354" type="line"/>
      <point x="125" y="354" type="line" name="sh03"/>
      <point x="125" y="500" type="line"/>
      <point x="125" y="569"/>
      <point x="241" y="634"/>
      <point x="346" y="634" type="qcurve" name="av01"/>
      <point x="413" y="634"/>
      <point x="493" y="574"/>
      <point x="513" y="534" type="qcurve" name="ih01"/>
      <point x="450" y="497" type="line" name="sv02"/>
      <point x="445" y="504"/>
      <point x="432" y="523" name="sh04"/>
      <point x="421.0" y="532.0" type="qcurve" smooth="yes" name="inserted"/>
      <point x="410" y="541"/>
      <point x="374" y="553"/>
      <point x="346" y="553" type="qcurve" name="sv03"/>
      <point x="278" y="553"/>
      <point x="209" y="525"/>
      <point x="209" y="478" type="qcurve"/>
      <point x="209" y="354" type="line" name="sh06"/>
      <point x="326" y="354" type="line"/>
      <point x="326" y="273" type="line" name="sh07"/>
      <point x="209" y="273" type="line" name="sh05"/>
      <point x="209" y="163" type="line"/>
      <point x="209" y="134"/>
      <point x="204" y="95"/>
      <point x="188" y="81" type="qcurve" name="ih02"/>
      <point x="463" y="81" type="line" name="sv01"/>
      <point x="463" y="177" type="line" name="sh08"/>
      <point x="484" y="177"/>
      <point x="526" y="178"/>
      <point x="547" y="178" type="qcurve" name="dh02"/>
    </contour>
  </outline>
</glyph>
<glyph name="currency" format="1">
  <advance width="500"/>
  <unicode hex="00A4"/>
  <outline>
    <contour>
      <point x="171" y="360" type="qcurve" name="sh01"/>
      <point x="171" y="328"/>
      <point x="216" y="283"/>
      <point x="248" y="283" type="qcurve" name="sv01"/>
      <point x="264" y="283"/>
      <point x="293" y="295"/>
      <point x="303.5" y="305.5" type="qcurve" smooth="yes" name="inserted"/>
      <point x="314" y="316"/>
      <point x="326" y="344"/>
      <point x="326" y="360" type="qcurve" name="sh03"/>
      <point x="326" y="392"/>
      <point x="280" y="438"/>
      <point x="248" y="438" type="qcurve" name="sv03"/>
      <point x="232" y="438"/>
      <point x="204" y="426"/>
      <point x="193.5" y="415.5" type="qcurve" smooth="yes" name="inserted"/>
      <point x="183" y="405"/>
      <point x="171" y="376"/>
    </contour>
    <contour>
      <point x="87" y="361" type="qcurve" name="ah01"/>
      <point x="87" y="383"/>
      <point x="98" y="422"/>
      <point x="108" y="439" type="qcurve"/>
      <point x="102" y="445"/>
      <point x="91" y="457"/>
      <point x="85" y="463" type="qcurve"/>
      <point x="144" y="522" type="line"/>
      <point x="168" y="498" type="line"/>
      <point x="187" y="507"/>
      <point x="225" y="519"/>
      <point x="247" y="519" type="qcurve" name="sv02"/>
      <point x="269" y="519"/>
      <point x="309" y="508"/>
      <point x="327" y="498" type="qcurve"/>
      <point x="351" y="522" type="line"/>
      <point x="410" y="463" type="line"/>
      <point x="388" y="441" type="line"/>
      <point x="399.0" y="422.0" name="inserted"/>
      <point x="410.0" y="382.0"/>
      <point x="410" y="361" type="qcurve" name="sh02"/>
      <point x="410.0" y="339.0" name="inserted"/>
      <point x="398.5" y="298.5"/>
      <point x="387" y="280" type="qcurve"/>
      <point x="411" y="256" type="line"/>
      <point x="352" y="197" type="line" name="fh01"/>
      <point x="345" y="203"/>
      <point x="333" y="216"/>
      <point x="326" y="222" type="qcurve"/>
      <point x="308.5" y="212.0" name="inserted"/>
      <point x="269.0" y="202.0"/>
      <point x="247" y="202" type="qcurve" name="av01"/>
      <point x="226.0" y="202.0" name="inserted"/>
      <point x="187.0" y="211.5"/>
      <point x="169" y="221" type="qcurve"/>
      <point x="144" y="196" type="line" name="fh02"/>
      <point x="85" y="255" type="line"/>
      <point x="109" y="279" type="line"/>
      <point x="98.0" y="298.0" name="inserted"/>
      <point x="87.0" y="339.0"/>
    </contour>
  </outline>
</glyph>
<glyph name="yen" format="1">
  <advance width="638"/>
  <unicode hex="00A5"/>
  <outline>
    <contour>
      <point x="541" y="100" type="line" name="sh02"/>
      <point x="424" y="100" type="line" name="sh01"/>
      <point x="424" y="79" type="line" name="sv01"/>
      <point x="497" y="79" type="line" name="sh03"/>
      <point x="497" y="0" type="line"/>
      <point x="255" y="0" type="line" name="ab01"/>
      <point x="255" y="79" type="line" name="sh05"/>
      <point x="322" y="79" type="line"/>
      <point x="322" y="100" type="line" name="sh04"/>
      <point x="207" y="100" type="line" name="sh06"/>
      <point x="207" y="181" type="line" name="iv01"/>
      <point x="322" y="181" type="line"/>
      <point x="322" y="263" type="line" name="dh01"/>
      <point x="207" y="263" type="line" name="sh07"/>
      <point x="207" y="344" type="line" name="iv02"/>
      <point x="278" y="344" type="line" name="ih01"/>
      <point x="114" y="621" type="line" name="sh08"/>
      <point x="13" y="621" type="line" name="sh09"/>
      <point x="13" y="700" type="line" name="at01"/>
      <point x="255" y="700" type="line"/>
      <point x="255" y="621" type="line" name="sh11"/>
      <point x="215" y="621" type="line" name="sh10"/>
      <point x="252" y="560"/>
      <point x="324" y="438"/>
      <point x="361" y="377" type="qcurve"/>
      <point x="372" y="346" type="line" name="ih02"/>
      <point x="373" y="346" type="line"/>
      <point x="385" y="377" type="line"/>
      <point x="529" y="621" type="line" name="sh13"/>
      <point x="490" y="621" type="line" name="sh14"/>
      <point x="490" y="700" type="line" name="sv02"/>
      <point x="732" y="700" type="line"/>
      <point x="732" y="621" type="line" name="sh15"/>
      <point x="631" y="621" type="line" name="sh12"/>
      <point x="590" y="551" name="fh01"/>
      <point x="510" y="413"/>
      <point x="468" y="344" type="qcurve" name="ih03"/>
      <point x="540" y="344" type="line"/>
      <point x="540" y="263" type="line" name="sh16"/>
      <point x="424" y="263" type="line" name="dh02"/>
      <point x="424" y="236" type="line"/>
      <point x="424" y="181" type="line" name="sv03"/>
      <point x="541" y="181" type="line"/>
    </contour>
  </outline>
</glyph>
<glyph name="brokenbar" format="1">
  <advance width="215"/>
  <unicode hex="00A6"/>
  <outline>
    <contour>
      <point x="153" y="-233" type="line"/>
      <point x="69" y="-233" type="line" name="av01"/>
      <point x="69" y="117" type="line" name="ah01"/>
      <point x="153" y="117" type="line" name="sh01"/>
    </contour>
    <contour>
      <point x="153" y="350" type="line" name="sh02"/>
      <point x="69" y="350" type="line" name="sh03"/>
      <point x="69" y="700" type="line" name="at01"/>
      <point x="153" y="700" type="line"/>
    </contour>
  </outline>
</glyph>
<glyph name="dieresis" format="1">
  <advance width="370"/>
  <unicode hex="00A8"/>
  <outline>
    <contour>
      <point x="215" y="520" type="qcurve" name="sh01"/>
      <point x="215" y="543"/>
      <point x="247" y="573"/>
      <point x="267" y="573" type="qcurve" name="sv02"/>
      <point x="286" y="573"/>
      <point x="318" y="543"/>
      <point x="318" y="520" type="qcurve" name="sh02"/>
      <point x="318" y="497"/>
      <point x="286" y="468"/>
      <point x="267" y="468" type="qcurve" name="sv03"/>
      <point x="247" y="468"/>
      <point x="215" y="497"/>
    </contour>
    <contour>
      <point x="49" y="520" type="qcurve" name="ah01"/>
      <point x="49" y="543"/>
      <point x="81" y="573"/>
      <point x="101" y="573" type="qcurve" name="sv01"/>
      <point x="120" y="573"/>
      <point x="152" y="543"/>
      <point x="152" y="520" type="qcurve" name="sh03"/>
      <point x="152" y="497"/>
      <point x="120" y="468"/>
      <point x="101" y="468" type="qcurve" name="av01"/>
      <point x="81" y="468"/>
      <point x="49" y="497"/>
    </contour>
  </outline>
</glyph>
<glyph name="ordfeminine" format="1">
  <advance width="585"/>
  <unicode hex="00AA"/>
  <outline>
    <contour>
      <point x="83" y="441" type="qcurve" name="ah01"/>
      <point x="83" y="469"/>
      <point x="106" y="521" name="fh01"/>
      <point x="125.5" y="540.5" type="qcurve" smooth="yes" name="inserted"/>
      <point x="145" y="560"/>
      <point x="198" y="583"/>
      <point x="228" y="583" type="qcurve" name="av01"/>
      <point x="248" y="583"/>
      <point x="281" y="571"/>
      <point x="293.0" y="564.5" type="qcurve" smooth="yes" name="inserted"/>
      <point x="305" y="558" name="fh02"/>
      <point x="320" y="545" name="sh03"/>
      <point x="320" y="543" type="qcurve"/>
      <point x="320" y="551"/>
      <point x="323" y="568"/>
      <point x="323" y="576" type="qcurve" name="sv01"/>
      <point x="373" y="576" type="line"/>
      <point x="373" y="363" type="line" name="sh01"/>
      <point x="427" y="363" type="line" name="sh04"/>
      <point x="427" y="306" type="line" name="sv03"/>
      <point x="320" y="306" type="line"/>
      <point x="320" y="320" type="line"/>
      <point x="320" y="335" type="line" name="sh05"/>
      <point x="319" y="333"/>
      <point x="306" y="321" name="fh03"/>
      <point x="294.0" y="315.0" type="qcurve" smooth="yes" name="inserted"/>
      <point x="282" y="309"/>
      <point x="249" y="300"/>
      <point x="228" y="300" type="qcurve" name="sv02"/>
      <point x="198" y="300"/>
      <point x="145" y="322" name="fh04"/>
      <point x="125.5" y="341.5" type="qcurve" smooth="yes" name="inserted"/>
      <point x="106" y="361" name="fh05"/>
      <point x="83" y="412"/>
    </contour>
    <contour>
      <point x="144" y="442" type="qcurve" name="sh06"/>
      <point x="144" y="406"/>
      <point x="191" y="358"/>
      <point x="228" y="358" type="qcurve" name="sv04"/>
      <point x="266" y="358"/>
      <point x="313" y="406"/>
      <point x="313" y="442" type="qcurve" name="sh02"/>
      <point x="313" y="478"/>
      <point x="266" y="525"/>
      <point x="228" y="525" type="qcurve" name="sv05"/>
      <point x="191" y="525"/>
      <point x="144" y="478"/>
    </contour>
  </outline>
</glyph>
<glyph name="guillemotleft" format="1">
  <advance width="601"/>
  <unicode hex="00AB"/>
  <outline>
    <contour>
      <point x="459" y="77" type="line" name="sv02"/>
      <point x="288" y="239" type="line" name="sh01"/>
      <point x="331" y="280"/>
      <point x="416" y="359" name="fh01"/>
      <point x="459" y="400" type="qcurve" name="sv04"/>
      <point x="459" y="306" type="line" name="sh02"/>
      <point x="442" y="289"/>
      <point x="411" y="256"/>
      <point x="394" y="239" type="qcurve" name="sh03"/>
      <point x="411" y="222"/>
      <point x="442" y="189"/>
      <point x="459" y="172" type="qcurve" name="sh04"/>
    </contour>
    <contour>
      <point x="288" y="77" type="line" name="sv01"/>
      <point x="117" y="239" type="line" name="ah01"/>
      <point x="160" y="280"/>
      <point x="245" y="359" name="fh02"/>
      <point x="288" y="400" type="qcurve" name="sv03"/>
      <point x="288" y="305" type="line" name="sh05"/>
      <point x="271" y="288"/>
      <point x="240" y="256"/>
      <point x="223" y="239" type="qcurve" name="sh06"/>
      <point x="240" y="222"/>
      <point x="271" y="189"/>
      <point x="288" y="172" type="qcurve" name="sh07"/>
    </contour>
  </outline>
</glyph>
<glyph name="registered" format="1">
  <advance width="801"/>
  <unicode hex="00AE"/>
  <outline>
    <contour>
      <point x="400" y="148" type="qcurve" name="sv01"/>
      <point x="447" y="148"/>
      <point x="529" y="182" name="fv01"/>
      <point x="559.0" y="212.0" type="qcurve" smooth="yes" name="inserted"/>
      <point x="589" y="242" name="fh01"/>
      <point x="623" y="324"/>
      <point x="623" y="372" type="qcurve" name="sh02"/>
      <point x="623" y="421"/>
      <point x="589" y="503" name="fh02"/>
      <point x="559.0" y="533.0" type="qcurve" smooth="yes" name="inserted"/>
      <point x="529" y="563" name="fh03"/>
      <point x="447" y="597"/>
      <point x="400" y="597" type="qcurve" name="sv03"/>
      <point x="353" y="597"/>
      <point x="271" y="563" name="fh04"/>
      <point x="241.0" y="533.0" type="qcurve" smooth="yes" name="inserted"/>
      <point x="211" y="503" name="fh05"/>
      <point x="177" y="421"/>
      <point x="177" y="372" type="qcurve" name="sh03"/>
      <point x="177" y="324"/>
      <point x="211" y="242" name="fh06"/>
      <point x="241.0" y="212.0" type="qcurve" smooth="yes" name="inserted"/>
      <point x="271" y="182" name="fh07"/>
      <point x="353" y="148"/>
    </contour>
    <contour>
      <point x="400" y="111" type="qcurve" name="av01"/>
      <point x="346" y="111"/>
      <point x="250" y="151" name="fh08"/>
      <point x="214.5" y="186.0" type="qcurve" smooth="yes" name="inserted"/>
      <point x="179" y="221" name="fh09"/>
      <point x="137" y="316"/>
      <point x="137" y="372" type="qcurve" name="ah01"/>
      <point x="137" y="429"/>
      <point x="179" y="525" name="fh10"/>
      <point x="214.5" y="560.0" type="qcurve" smooth="yes" name="inserted"/>
      <point x="250" y="595" name="fh11"/>
      <point x="346" y="634"/>
      <point x="400" y="634" type="qcurve" name="sv02"/>
      <point x="454" y="634"/>
      <point x="550" y="595" name="fh12"/>
      <point x="585.5" y="560.0" type="qcurve" smooth="yes" name="inserted"/>
      <point x="621" y="525" name="fh13"/>
      <point x="663" y="429"/>
      <point x="663" y="372" type="qcurve" name="sh01"/>
      <point x="663" y="316"/>
      <point x="621" y="221" name="fh14"/>
      <point x="585.5" y="186.0" type="qcurve" smooth="yes" name="inserted"/>
      <point x="550" y="151" name="fh15"/>
      <point x="454" y="111"/>
    </contour>
    <contour>
      <point x="310" y="247" type="line" name="sh04"/>
      <point x="331" y="247" type="line" name="ih01"/>
      <point x="331" y="504" type="line"/>
      <point x="310" y="504" type="line" name="sh05"/>
      <point x="310" y="541" type="line" name="sv04"/>
      <point x="409" y="541" type="line"/>
      <point x="425" y="541"/>
      <point x="464" y="531"/>
      <point x="481.5" y="520.0" type="qcurve" smooth="yes" name="inserted"/>
      <point x="499" y="509" name="fh16"/>
      <point x="522" y="475"/>
      <point x="522" y="451" type="qcurve" name="sh06"/>
      <point x="522" y="416" name="fh17"/>
      <point x="486" y="368" name="fh18"/>
      <point x="452" y="360" type="qcurve" name="ih02"/>
      <point x="505" y="247" type="line" name="sh09"/>
      <point x="549" y="247" type="line"/>
      <point x="549" y="210" type="line" name="sh12"/>
      <point x="480" y="210" type="line" name="sh11"/>
      <point x="411" y="358" type="line" name="sh10"/>
      <point x="390" y="358" type="line"/>
      <point x="370" y="358" type="line" name="iv02"/>
      <point x="370" y="247" type="line" name="sh07"/>
      <point x="424" y="247" type="line" name="sh13"/>
      <point x="424" y="210" type="line"/>
      <point x="310" y="210" type="line" name="iv01"/>
    </contour>
    <contour>
      <point x="370" y="395" type="line" name="sh08"/>
      <point x="412" y="395" type="line"/>
      <point x="433" y="395"/>
      <point x="460" y="406"/>
      <point x="468.0" y="414.0" type="qcurve" smooth="yes" name="inserted"/>
      <point x="476" y="422" name="fh19"/>
      <point x="482" y="442"/>
      <point x="482" y="451" type="qcurve" name="sh14"/>
      <point x="482" y="472" name="fh20"/>
      <point x="442" y="504"/>
      <point x="412" y="504" type="qcurve"/>
      <point x="370" y="504" type="line" name="sv05"/>
    </contour>
  </outline>
</glyph>
<glyph name="paragraph" format="1">
  <advance width="547"/>
  <unicode hex="00B6"/>
  <outline>
    <contour>
      <point x="284" y="0" type="line" name="sh01"/>
      <point x="201" y="0" type="line" name="ah01"/>
      <point x="201" y="423" type="line" name="sv01"/>
      <point x="167" y="423"/>
      <point x="107" y="448"/>
      <point x="85.0" y="470.0" type="qcurve" smooth="yes" name="inserted"/>
      <point x="63" y="492"/>
      <point x="38" y="552"/>
      <point x="38" y="586" type="qcurve" name="sh02"/>
      <point x="38" y="620"/>
      <point x="63" y="680"/>
      <point x="85.0" y="702.0" type="qcurve" smooth="yes" name="inserted"/>
      <point x="107" y="724"/>
      <point x="167" y="750"/>
      <point x="201" y="750" type="qcurve"/>
      <point x="516" y="750" type="line" name="at01"/>
      <point x="516" y="680" type="line" name="sh06"/>
      <point x="447" y="680" type="line"/>
      <point x="447" y="70" type="line" name="sh04"/>
      <point x="516" y="70" type="line" name="sh05"/>
      <point x="516" y="0" type="line" name="ab01"/>
      <point x="364" y="0" type="line" name="sh03"/>
      <point x="364" y="680" type="line" name="sv02"/>
      <point x="284" y="680" type="line"/>
    </contour>
  </outline>
</glyph>
<glyph name="onehalf" format="1">
  <advance width="1069"/>
  <unicode hex="00BD"/>
  <outline>
    <contour>
      <point x="113" y="290" type="line" name="sh02"/>
      <point x="169" y="290" type="line" name="sh01"/>
      <point x="169" y="638" type="line"/>
      <point x="121" y="638" type="line" name="sh03"/>
      <point x="121" y="695" type="line" name="at01"/>
      <point x="229" y="695" type="line"/>
      <point x="229" y="290" type="line" name="ah01"/>
      <point x="285" y="290" type="line" name="sh04"/>
      <point x="285" y="234" type="line"/>
      <point x="113" y="234" type="line" name="sv01"/>
    </contour>
    <contour>
      <point x="689" y="57" type="qcurve" name="sh07"/>
      <point x="805" y="57" type="line" name="sv02"/>
      <point x="805" y="123" type="line" name="sh09"/>
      <point x="861" y="123" type="line" name="sh08"/>
      <point x="861" y="0" type="line" name="ab01"/>
      <point x="548" y="0" type="line" name="sh06"/>
      <point x="591" y="44"/>
      <point x="674" y="127" name="iv01"/>
      <point x="705.5" y="165.5" type="qcurve" smooth="yes" name="inserted"/>
      <point x="737" y="204" name="fh01"/>
      <point x="776" y="277"/>
      <point x="776" y="311" type="qcurve" name="sh10"/>
      <point x="776" y="337"/>
      <point x="759" y="374"/>
      <point x="745.5" y="386.0" type="qcurve" smooth="yes" name="inserted"/>
      <point x="732" y="398"/>
      <point x="702" y="410"/>
      <point x="689" y="410" type="qcurve" name="sv04"/>
      <point x="662" y="410"/>
      <point x="628" y="391"/>
      <point x="618.0" y="377.5" type="qcurve" smooth="yes" name="inserted"/>
      <point x="608" y="364"/>
      <point x="601" y="334"/>
      <point x="601" y="323" type="qcurve" name="sh11"/>
      <point x="601" y="300"/>
      <point x="615" y="263"/>
      <point x="628" y="249" type="qcurve" name="sh12"/>
      <point x="593" y="213" type="line" name="sv05"/>
      <point x="581" y="221"/>
      <point x="562" y="247"/>
      <point x="555.0" y="262.0" type="qcurve" smooth="yes" name="inserted"/>
      <point x="548" y="277"/>
      <point x="541" y="309"/>
      <point x="541" y="323" type="qcurve" name="sh05"/>
      <point x="541" y="351"/>
      <point x="560" y="404" name="fh02"/>
      <point x="579.0" y="424.0" type="qcurve" smooth="yes" name="inserted"/>
      <point x="598" y="444" name="fh03"/>
      <point x="653" y="467"/>
      <point x="689" y="467" type="qcurve" name="sv03"/>
      <point x="722" y="467"/>
      <point x="776" y="443" name="fh04"/>
      <point x="795.0" y="422.5" type="qcurve" smooth="yes" name="inserted"/>
      <point x="814" y="402" name="fh05"/>
      <point x="835" y="349"/>
      <point x="835" y="319" type="qcurve" name="ah02"/>
      <point x="835" y="284"/>
      <point x="810" y="218"/>
      <point x="790.0" y="185.5" type="qcurve" smooth="yes" name="inserted"/>
      <point x="770" y="153"/>
      <point x="718" y="89" name="iv02"/>
    </contour>
    <contour>
      <point x="256" y="-19" type="line" name="ih01"/>
      <point x="326" y="171"/>
      <point x="464" y="546"/>
      <point x="534" y="736" type="qcurve" name="sh14"/>
      <point x="618" y="736" type="line" name="sh13"/>
      <point x="548" y="546"/>
      <point x="410" y="171"/>
      <point x="340" y="-19" type="qcurve" name="sh15"/>
    </contour>
  </outline>
</glyph>
<glyph name="threequarters" format="1">
  <advance width="1276"/>
  <unicode hex="00BE"/>
  <outline>
    <contour>
      <point x="212" y="457" type="qcurve" name="ih01"/>
      <point x="320" y="644" type="line" name="sh03"/>
      <point x="234" y="644" type="line" name="sv02"/>
      <point x="234" y="608" type="line" name="sh04"/>
      <point x="173" y="608" type="line" name="ih02"/>
      <point x="173" y="708" type="line" name="at01"/>
      <point x="427" y="708" type="line" name="sh02"/>
      <point x="316" y="524" type="line" name="sh05"/>
      <point x="342" y="514" name="fh01"/>
      <point x="384" y="484" name="fh02"/>
      <point x="399.5" y="464.0" type="qcurve" smooth="yes" name="inserted"/>
      <point x="415" y="444" name="fh03"/>
      <point x="432" y="395"/>
      <point x="432" y="367" type="qcurve" name="ah01"/>
      <point x="432" y="332"/>
      <point x="405" y="271" name="fh04"/>
      <point x="381.5" y="248.0" type="qcurve" smooth="yes" name="inserted"/>
      <point x="358" y="225" name="fh05"/>
      <point x="297" y="199"/>
      <point x="262" y="199" type="qcurve" name="sv01"/>
      <point x="225" y="199"/>
      <point x="162" y="229"/>
      <point x="139" y="254" type="qcurve" name="sh01"/>
      <point x="186" y="298" type="line" name="sv03"/>
      <point x="200" y="281"/>
      <point x="239" y="261"/>
      <point x="262" y="261" type="qcurve" name="sv04"/>
      <point x="284" y="261"/>
      <point x="322" y="278"/>
      <point x="336.0" y="292.5" type="qcurve" smooth="yes" name="inserted"/>
      <point x="350" y="307"/>
      <point x="367" y="345"/>
      <point x="367" y="367" type="qcurve" name="sh06"/>
      <point x="367" y="388"/>
      <point x="350" y="426"/>
      <point x="336.0" y="440.0" type="qcurve" smooth="yes" name="inserted"/>
      <point x="322" y="454"/>
      <point x="284" y="470"/>
      <point x="262" y="470" type="qcurve" name="iv01"/>
      <point x="248.0" y="470.0" name="inserted"/>
      <point x="223.0" y="463.5"/>
    </contour>
    <contour>
      <point x="446" y="-19" type="line" name="ih03"/>
      <point x="516" y="171"/>
      <point x="654" y="546"/>
      <point x="724" y="736" type="qcurve" name="sh08"/>
      <point x="808" y="736" type="line" name="sh07"/>
      <point x="738" y="546"/>
      <point x="600" y="171"/>
      <point x="530" y="-19" type="qcurve" name="sh09"/>
    </contour>
    <contour>
      <point x="854" y="59" type="line" name="sh11"/>
      <point x="910" y="59" type="line" name="sh10"/>
      <point x="910" y="136" type="line" name="sv06"/>
      <point x="700" y="136" type="line" name="sh13"/>
      <point x="972" y="490" type="line" name="sv05"/>
      <point x="972" y="197" type="line" name="sh14"/>
      <point x="1044" y="197" type="line" name="sh15"/>
      <point x="1044" y="136" type="line"/>
      <point x="972" y="136" type="line" name="iv02"/>
      <point x="972" y="59" type="line" name="ah02"/>
      <point x="1034" y="59" type="line" name="sh16"/>
      <point x="1034" y="0" type="line" name="ab01"/>
      <point x="854" y="0" type="line"/>
    </contour>
    <contour>
      <point x="910" y="308" type="line" name="sv07"/>
      <point x="825" y="197" type="line" name="sh17"/>
      <point x="910" y="197" type="line" name="sh12"/>
    </contour>
  </outline>
</glyph>
<glyph name="AE" format="1">
  <advance width="777"/>
  <unicode hex="00C6"/>
  <outline>
    <contour>
      <point x="649" y="546" type="line" name="sh01"/>
      <point x="649" y="621" type="line"/>
      <point x="475" y="621" type="line" name="sv01"/>
      <point x="475" y="392" type="line" name="sh03"/>
      <point x="689" y="392" type="line"/>
      <point x="689" y="313" type="line" name="ih02"/>
      <point x="475" y="313" type="line" name="sv02"/>
      <point x="475" y="79" type="line" name="sh02"/>
      <point x="663" y="79" type="line"/>
      <point x="663" y="154" type="line" name="sh04"/>
      <point x="742" y="154" type="line"/>
      <point x="742" y="0" type="line" name="dh02"/>
      <point x="392" y="0" type="line" name="dh01"/>
      <point x="392" y="264" type="line" name="sv03"/>
      <point x="277" y="264" type="line" name="ih03"/>
      <point x="257" y="217"/>
      <point x="218" y="126"/>
      <point x="198" y="79" type="qcurve" name="sh06"/>
      <point x="257" y="79" type="line" name="sh08"/>
      <point x="257" y="0" type="line"/>
      <point x="35" y="0" type="line" name="ab01"/>
      <point x="35" y="79" type="line" name="sh09"/>
      <point x="115" y="79" type="line" name="sh05"/>
      <point x="181" y="235"/>
      <point x="312" y="544"/>
      <point x="378" y="700" type="qcurve" name="sh10"/>
      <point x="728" y="700" type="line"/>
      <point x="728" y="546" type="line" name="ih01"/>
    </contour>
    <contour>
      <point x="392" y="343" type="line" name="sh07"/>
      <point x="392" y="548" type="line" name="sv04"/>
      <point x="378" y="496"/>
      <point x="331" y="394"/>
      <point x="310" y="343" type="qcurve" name="ih04"/>
    </contour>
  </outline>
</glyph>
<glyph name="Ccedilla" format="1">
  <advance width="572"/>
  <unicode hex="00C7"/>
  <outline>
    <contour>
      <point x="496" y="436" type="line" name="sh01"/>
      <point x="496" y="607" type="line"/>
      <point x="471.0" y="618.0" name="inserted"/>
      <point x="419.0" y="629.0"/>
      <point x="392" y="629" type="qcurve" name="sv01"/>
      <point x="335" y="629"/>
      <point x="236" y="585"/>
      <point x="198.5" y="546.5" type="qcurve" smooth="yes" name="inserted"/>
      <point x="161" y="508"/>
      <point x="118" y="406"/>
      <point x="118" y="349" type="qcurve" name="sh02"/>
      <point x="118" y="292"/>
      <point x="161" y="190"/>
      <point x="198.5" y="152.5" type="qcurve" smooth="yes" name="inserted"/>
      <point x="236" y="115"/>
      <point x="335" y="71"/>
      <point x="392" y="71" type="qcurve" name="sv02"/>
      <point x="429.0" y="71.0" name="inserted"/>
      <point x="497.5" y="89.5"/>
      <point x="529" y="108" type="qcurve" name="sv03"/>
      <point x="574" y="42" type="line" name="sh03"/>
      <point x="536" y="20"/>
      <point x="452" y="-6"/>
      <point x="406" y="-8" type="qcurve" name="sh04"/>
      <point x="406.0" y="-14.5" name="inserted"/>
      <point x="406.5" y="-21.5"/>
      <point x="407" y="-22" type="qcurve"/>
      <point x="412" y="-41"/>
      <point x="437" y="-53"/>
      <point x="448" y="-61" type="qcurve"/>
      <point x="469" y="-77"/>
      <point x="486" y="-117"/>
      <point x="486" y="-142" type="qcurve" name="sh05"/>
      <point x="486" y="-163"/>
      <point x="473" y="-202"/>
      <point x="459.5" y="-217.0" type="qcurve" smooth="yes" name="inserted"/>
      <point x="446" y="-232" name="fh01"/>
      <point x="407" y="-250"/>
      <point x="381" y="-250" type="qcurve" name="ab01"/>
      <point x="347" y="-250" name="fh02"/>
      <point x="290" y="-213"/>
      <point x="277" y="-175" type="qcurve" name="sh06"/>
      <point x="323" y="-151" type="line" name="sv04"/>
      <point x="328" y="-167" name="sh07"/>
      <point x="354" y="-188"/>
      <point x="374" y="-188" type="qcurve" name="sv05"/>
      <point x="398" y="-188"/>
      <point x="424" y="-156"/>
      <point x="424" y="-132" type="qcurve" name="sh08"/>
      <point x="424" y="-112"/>
      <point x="402" y="-89"/>
      <point x="389.5" y="-80.0" type="qcurve" smooth="yes" name="inserted"/>
      <point x="377" y="-71"/>
      <point x="355" y="-51"/>
      <point x="355" y="-34" type="qcurve"/>
      <point x="355" y="-6" type="line" name="ih01"/>
      <point x="287" y="1" name="fh03"/>
      <point x="171" y="61" name="fh04"/>
      <point x="127.5" y="108.5" type="qcurve" smooth="yes" name="inserted"/>
      <point x="84" y="156" name="fh05"/>
      <point x="35" y="280"/>
      <point x="35" y="349" type="qcurve" name="dh01"/>
      <point x="35" y="423"/>
      <point x="91" y="554" name="fh06"/>
      <point x="139.5" y="602.5" type="qcurve" smooth="yes" name="inserted"/>
      <point x="188" y="651" name="fh07"/>
      <point x="318" y="708"/>
      <point x="392" y="708" type="qcurve" name="at01"/>
      <point x="443" y="708"/>
      <point x="534" y="682"/>
      <point x="575" y="658" type="qcurve"/>
      <point x="575" y="436" type="line" name="dh02"/>
    </contour>
  </outline>
</glyph>
<glyph name="Eth" format="1">
  <advance width="632"/>
  <unicode hex="00D0"/>
  <outline>
    <contour>
      <point x="44" y="390" type="line"/>
      <point x="82" y="390" type="line" name="sh01"/>
      <point x="82" y="621" type="line" name="sv02"/>
      <point x="35" y="621" type="line" name="sh03"/>
      <point x="35" y="700" type="line"/>
      <point x="245" y="700" type="line" name="at01"/>
      <point x="317" y="700"/>
      <point x="445" y="651" name="fh01"/>
      <point x="493.0" y="605.0" type="qcurve" smooth="yes" name="inserted"/>
      <point x="541" y="559"/>
      <point x="597" y="430"/>
      <point x="597" y="349" type="qcurve" name="dh02"/>
      <point x="597" y="290"/>
      <point x="556" y="166"/>
      <point x="510.0" y="115.5" type="qcurve" smooth="yes" name="inserted"/>
      <point x="464" y="65"/>
      <point x="317" y="0"/>
      <point x="211" y="0" type="qcurve" name="ab01"/>
      <point x="35" y="0" type="line"/>
      <point x="35" y="79" type="line" name="sh02"/>
      <point x="82" y="79" type="line" name="dh01"/>
      <point x="82" y="309" type="line" name="sv05"/>
      <point x="44" y="309" type="line" name="sh04"/>
    </contour>
    <contour>
      <point x="165" y="621" type="line"/>
      <point x="165" y="390" type="line" name="sh06"/>
      <point x="346" y="390" type="line" name="sh07"/>
      <point x="346" y="309" type="line"/>
      <point x="165" y="309" type="line" name="sv04"/>
      <point x="165" y="79" type="line" name="sh05"/>
      <point x="235" y="79" type="line" name="sv03"/>
      <point x="294" y="79"/>
      <point x="396" y="118"/>
      <point x="433.5" y="153.0" type="qcurve" smooth="yes" name="inserted"/>
      <point x="471" y="188" name="fh02"/>
      <point x="514" y="288"/>
      <point x="514" y="350" type="qcurve" name="sh08"/>
      <point x="514" y="412"/>
      <point x="471" y="512" name="fh03"/>
      <point x="433.5" y="547.5" type="qcurve" smooth="yes" name="inserted"/>
      <point x="396" y="583"/>
      <point x="294" y="621"/>
      <point x="235" y="621" type="qcurve" name="sv01"/>
    </contour>
  </outline>
</glyph>
<glyph name="Oslash" format="1">
  <advance width="786"/>
  <unicode hex="00D8"/>
  <outline>
    <contour>
      <point x="118" y="349" type="qcurve" name="sh01"/>
      <point x="118" y="296"/>
      <point x="154" y="203"/>
      <point x="186" y="166" type="qcurve" name="ih01"/>
      <point x="276" y="271"/>
      <point x="453" y="477"/>
      <point x="543" y="582" type="qcurve" name="ih02"/>
      <point x="510" y="604"/>
      <point x="434" y="629"/>
      <point x="392" y="629" type="qcurve" name="sv02"/>
      <point x="335" y="629"/>
      <point x="236" y="585" name="fv01"/>
      <point x="198.5" y="546.5" type="qcurve" smooth="yes" name="inserted"/>
      <point x="161" y="508" name="fh01"/>
      <point x="118" y="406"/>
    </contour>
    <contour>
      <point x="392" y="71" type="qcurve" name="sv01"/>
      <point x="449" y="71"/>
      <point x="549" y="115" name="fh02"/>
      <point x="586.5" y="152.5" type="qcurve" smooth="yes" name="inserted"/>
      <point x="624" y="190" name="fh03"/>
      <point x="668" y="292"/>
      <point x="668" y="349" type="qcurve" name="sh02"/>
      <point x="668" y="401"/>
      <point x="632" y="494"/>
      <point x="600" y="531" type="qcurve" name="ih03"/>
      <point x="510" y="426"/>
      <point x="334" y="220"/>
      <point x="244" y="115" type="qcurve" name="ih04"/>
      <point x="276" y="94"/>
      <point x="350" y="71"/>
    </contour>
    <contour>
      <point x="35" y="349" type="qcurve" name="dh01"/>
      <point x="35" y="423"/>
      <point x="91" y="554" name="fh04"/>
      <point x="139.5" y="602.5" type="qcurve" smooth="yes" name="inserted"/>
      <point x="188" y="651" name="fh05"/>
      <point x="318" y="708"/>
      <point x="392" y="708" type="qcurve" name="at01"/>
      <point x="449" y="708"/>
      <point x="552" y="674" name="fv02"/>
      <point x="596" y="644" type="qcurve" name="ih05"/>
      <point x="612" y="663" name="fh06"/>
      <point x="644" y="700"/>
      <point x="660" y="719" type="qcurve" name="sv03"/>
      <point x="674" y="706"/>
      <point x="704" y="681"/>
      <point x="718" y="668" type="qcurve" name="sh03"/>
      <point x="702" y="649"/>
      <point x="670" y="613" name="fh07"/>
      <point x="654" y="594" type="qcurve" name="ih06"/>
      <point x="699" y="546" name="fh08"/>
      <point x="751" y="420"/>
      <point x="751" y="349" type="qcurve" name="dh02"/>
      <point x="751" y="275"/>
      <point x="694" y="145" name="fh09"/>
      <point x="645.5" y="96.5" type="qcurve" smooth="yes" name="inserted"/>
      <point x="597" y="48" name="fh10"/>
      <point x="466" y="-8"/>
      <point x="392" y="-8" type="qcurve" name="ab01"/>
      <point x="335" y="-8"/>
      <point x="234" y="24"/>
      <point x="191" y="53" type="qcurve" name="ih07"/>
      <point x="176" y="36"/>
      <point x="146" y="0"/>
      <point x="131" y="-17" type="qcurve" name="sv04"/>
      <point x="117" y="-4"/>
      <point x="87" y="21"/>
      <point x="73" y="34" type="qcurve" name="sh04"/>
      <point x="88" y="51"/>
      <point x="117" y="86" name="fh11"/>
      <point x="132" y="103" type="qcurve" name="ih08"/>
      <point x="87" y="151" name="fh12"/>
      <point x="35" y="277"/>
    </contour>
  </outline>
</glyph>
<glyph name="Thorn" format="1">
  <advance width="543"/>
  <unicode hex="00DE"/>
  <outline>
    <contour>
      <point x="35" y="79" type="line" name="sh01"/>
      <point x="106" y="79" type="line" name="dh01"/>
      <point x="106" y="621" type="line"/>
      <point x="35" y="621" type="line" name="sh02"/>
      <point x="35" y="700" type="line" name="at01"/>
      <point x="257" y="700" type="line"/>
      <point x="257" y="621" type="line" name="sh04"/>
      <point x="189" y="621" type="line" name="sv01"/>
      <point x="189" y="535" type="line" name="sh06"/>
      <point x="271" y="535" type="line"/>
      <point x="305" y="535"/>
      <point x="388" y="514"/>
      <point x="424.0" y="491.0" type="qcurve" smooth="yes" name="inserted"/>
      <point x="460" y="468" name="fh01"/>
      <point x="508" y="396"/>
      <point x="508" y="345" type="qcurve" name="dh02"/>
      <point x="508" y="254" name="fh02"/>
      <point x="400" y="147" name="fh03"/>
      <point x="298" y="147" type="qcurve"/>
      <point x="189" y="147" type="line" name="iv01"/>
      <point x="189" y="79" type="line" name="sh03"/>
      <point x="277" y="79" type="line" name="sh07"/>
      <point x="277" y="0" type="line"/>
      <point x="35" y="0" type="line" name="ab01"/>
    </contour>
    <contour>
      <point x="189" y="227" type="line" name="sh05"/>
      <point x="276" y="227" type="line"/>
      <point x="320" y="227"/>
      <point x="377" y="250"/>
      <point x="394.0" y="267.0" type="qcurve" smooth="yes" name="inserted"/>
      <point x="411" y="284"/>
      <point x="425" y="326"/>
      <point x="425" y="345" type="qcurve" name="sh08"/>
      <point x="425" y="367"/>
      <point x="402" y="408"/>
      <point x="382.5" y="423.5" type="qcurve" smooth="yes" name="inserted"/>
      <point x="363" y="439"/>
      <point x="308" y="457"/>
      <point x="277" y="457" type="qcurve"/>
      <point x="189" y="457" type="line" name="sv02"/>
    </contour>
  </outline>
</glyph>
<glyph name="germandbls" format="1">
  <advance width="559"/>
  <unicode hex="00DF"/>
  <outline>
    <contour>
      <point x="35" y="79" type="line" name="sh01"/>
      <point x="95" y="79" type="line" name="dh01"/>
      <point x="95" y="334" type="line" name="sv01"/>
      <point x="35" y="334" type="line"/>
      <point x="35" y="415" type="line" name="sh03"/>
      <point x="95" y="415" type="line" name="sh02"/>
      <point x="95" y="423" type="line"/>
      <point x="95" y="477"/>
      <point x="130" y="564" name="fh01"/>
      <point x="159.0" y="594.5" type="qcurve" smooth="yes" name="inserted"/>
      <point x="188" y="625" name="fh02"/>
      <point x="264" y="657"/>
      <point x="305" y="657" type="qcurve" name="at01"/>
      <point x="338" y="657"/>
      <point x="396" y="632"/>
      <point x="418.0" y="610.0" type="qcurve" smooth="yes" name="inserted"/>
      <point x="440" y="588"/>
      <point x="465" y="530"/>
      <point x="465" y="497" type="qcurve" name="ih01"/>
      <point x="465" y="465"/>
      <point x="441" y="410"/>
      <point x="421" y="390" type="qcurve" name="ih03"/>
      <point x="467" y="361" name="fh03"/>
      <point x="524" y="266" name="fh04"/>
      <point x="524" y="208" type="qcurve" name="dh02"/>
      <point x="524" y="163"/>
      <point x="489" y="84" name="fh05"/>
      <point x="459.0" y="54.5" type="qcurve" smooth="yes" name="inserted"/>
      <point x="429" y="25" name="fh06"/>
      <point x="350" y="-9"/>
      <point x="305" y="-9" type="qcurve" name="ab02"/>
      <point x="281.5" y="-9.0" name="inserted"/>
      <point x="238.5" y="0.0"/>
      <point x="219" y="9" type="qcurve" name="ih04"/>
      <point x="253" y="83" type="line" name="sv03"/>
      <point x="265.5" y="77.5" name="inserted"/>
      <point x="291.5" y="72.0"/>
      <point x="305" y="72" type="qcurve" name="sv04"/>
      <point x="333" y="72"/>
      <point x="382" y="94" name="fh07"/>
      <point x="400.5" y="112.5" type="qcurve" smooth="yes" name="inserted"/>
      <point x="419" y="131"/>
      <point x="441" y="180"/>
      <point x="441" y="208" type="qcurve" name="sh05"/>
      <point x="441" y="236"/>
      <point x="419" y="285"/>
      <point x="400.0" y="303.0" type="qcurve" smooth="yes" name="inserted"/>
      <point x="381" y="321" name="fh08"/>
      <point x="331" y="342"/>
      <point x="303" y="342" type="qcurve" name="sv02"/>
      <point x="303" y="352"/>
      <point x="302" y="371"/>
      <point x="302" y="382" type="qcurve" name="ih02"/>
      <point x="302" y="423" type="line" name="iv01"/>
      <point x="336" y="423"/>
      <point x="382" y="462"/>
      <point x="382" y="497" type="qcurve" name="sh06"/>
      <point x="382" y="528"/>
      <point x="338" y="577"/>
      <point x="306" y="576" type="qcurve" name="sv05"/>
      <point x="249" y="574"/>
      <point x="178" y="491"/>
      <point x="178" y="418" type="qcurve"/>
      <point x="178" y="0" type="line" name="sh04"/>
      <point x="35" y="0" type="line" name="ab01"/>
    </contour>
  </outline>
</glyph>
<glyph name="thorn" format="1">
  <advance width="510"/>
  <unicode hex="00FE"/>
  <outline>
    <contour>
      <point x="16" y="-171" type="line" name="sh01"/>
      <point x="93" y="-171" type="line" name="dh01"/>
      <point x="93" y="671" type="line"/>
      <point x="16" y="671" type="line" name="sh02"/>
      <point x="16" y="750" type="line" name="at01"/>
      <point x="238" y="750" type="line"/>
      <point x="238" y="671" type="line" name="sh04"/>
      <point x="176" y="671" type="line" name="sh05"/>
      <point x="176" y="360" type="line"/>
      <point x="174" y="352"/>
      <point x="168" y="337"/>
      <point x="166" y="329" type="qcurve" name="iv01"/>
      <point x="167" y="332"/>
      <point x="188" y="350" name="fh01"/>
      <point x="205.0" y="359.0" type="qcurve" smooth="yes" name="inserted"/>
      <point x="222" y="368" name="fh02"/>
      <point x="267" y="382"/>
      <point x="293" y="382" type="qcurve" name="at02"/>
      <point x="335" y="382"/>
      <point x="409" y="351" name="fh03"/>
      <point x="436.0" y="324.0" type="qcurve" smooth="yes" name="inserted"/>
      <point x="463" y="297" name="fh04"/>
      <point x="494" y="226"/>
      <point x="494" y="187" type="qcurve" name="dh02"/>
      <point x="494" y="147"/>
      <point x="463" y="76" name="fh05"/>
      <point x="436.0" y="49.0" type="qcurve" smooth="yes" name="inserted"/>
      <point x="409" y="22" name="fh06"/>
      <point x="335" y="-9"/>
      <point x="293" y="-9" type="qcurve" name="ab02"/>
      <point x="265" y="-9"/>
      <point x="221" y="3" name="fh07"/>
      <point x="205.0" y="10.5" type="qcurve" smooth="yes" name="inserted"/>
      <point x="189" y="18" name="fh08"/>
      <point x="170" y="34"/>
      <point x="167" y="38" type="qcurve" name="iv02"/>
      <point x="169" y="33"/>
      <point x="174" y="24"/>
      <point x="176" y="19" type="qcurve"/>
      <point x="176" y="-171" type="line" name="sh03"/>
      <point x="258" y="-171" type="line" name="sh06"/>
      <point x="258" y="-250" type="line"/>
      <point x="16" y="-250" type="line" name="ab01"/>
    </contour>
    <contour>
      <point x="410" y="188" type="qcurve" name="sh07"/>
      <point x="410" y="238"/>
      <point x="345" y="303"/>
      <point x="293" y="303" type="qcurve" name="sv01"/>
      <point x="241" y="303"/>
      <point x="176" y="238"/>
      <point x="176" y="188" type="qcurve" name="sh08"/>
      <point x="176" y="139"/>
      <point x="241" y="72"/>
      <point x="293" y="72" type="qcurve" name="sv02"/>
      <point x="345" y="72"/>
      <point x="410" y="139"/>
    </contour>
  </outline>
</glyph>
<glyph name="emdash" format="1">
  <advance width="700"/>
  <unicode hex="2014"/>
  <outline>
    <contour>
      <point x="99" y="174" type="line" name="ah01"/>
      <point x="99" y="255" type="line" name="sv01"/>
      <point x="601" y="255" type="line"/>
      <point x="601" y="174" type="line" name="sh01"/>
    </contour>
  </outline>
</glyph>
<glyph name="quoteright" format="1">
  <advance width="164"/>
  <unicode hex="2019"/>
  <outline>
    <contour>
      <point x="76" y="566" type="qcurve" name="sv01"/>
      <point x="65" y="572"/>
      <point x="46" y="584"/>
      <point x="35" y="590" type="qcurve" name="sh01"/>
      <point x="56" y="610"/>
      <point x="75" y="669"/>
      <point x="68" y="704" type="qcurve" name="sh02"/>
      <point x="81" y="706"/>
      <point x="107" y="709"/>
      <point x="120" y="711" type="qcurve" name="ah01"/>
      <point x="128" y="669"/>
      <point x="104" y="594"/>
    </contour>
  </outline>
</glyph>
<glyph name="quotesinglbase" format="1">
  <advance width="146"/>
  <unicode hex="201A"/>
  <outline>
    <contour>
      <point x="60" y="-53" type="qcurve" name="sv01"/>
      <point x="49" y="-47"/>
      <point x="30" y="-35"/>
      <point x="19" y="-29" type="qcurve" name="sh01"/>
      <point x="40" y="-9"/>
      <point x="59" y="50"/>
      <point x="52" y="85" type="qcurve" name="sh02"/>
      <point x="65" y="87"/>
      <point x="91" y="90"/>
      <point x="104" y="92" type="qcurve" name="ah01"/>
      <point x="112" y="50"/>
      <point x="88" y="-25"/>
    </contour>
  </outline>
</glyph>
<glyph name="quotedblleft" format="1">
  <advance width="249"/>
  <unicode hex="201C"/>
  <outline>
    <contour>
      <point x="220" y="590" type="qcurve" name="sh02"/>
      <point x="209" y="584"/>
      <point x="190" y="572"/>
      <point x="179" y="566" type="qcurve" name="sv02"/>
      <point x="151" y="594"/>
      <point x="127" y="669"/>
      <point x="135" y="711" type="qcurve" name="sh01"/>
      <point x="148" y="709"/>
      <point x="174" y="706"/>
      <point x="187" y="704" type="qcurve" name="sh03"/>
      <point x="180" y="669"/>
      <point x="199" y="610"/>
    </contour>
    <contour>
      <point x="116" y="590" type="qcurve" name="sh04"/>
      <point x="105" y="584"/>
      <point x="86" y="572"/>
      <point x="75" y="566" type="qcurve" name="sv01"/>
      <point x="47" y="594"/>
      <point x="23" y="669"/>
      <point x="31" y="711" type="qcurve" name="ah01"/>
      <point x="44" y="709"/>
      <point x="70" y="706"/>
      <point x="83" y="704" type="qcurve" name="sh05"/>
      <point x="76" y="669"/>
      <point x="95" y="610"/>
    </contour>
  </outline>
</glyph>
<glyph name="quotedblright" format="1">
  <advance width="248"/>
  <unicode hex="201D"/>
  <outline>
    <contour>
      <point x="52" y="566" type="qcurve" name="sv01"/>
      <point x="41" y="572"/>
      <point x="22" y="584"/>
      <point x="11" y="590" type="qcurve" name="sh02"/>
      <point x="32" y="610"/>
      <point x="51" y="669"/>
      <point x="44" y="704" type="qcurve" name="sh03"/>
      <point x="57" y="706"/>
      <point x="83" y="709"/>
      <point x="96" y="711" type="qcurve" name="sh01"/>
      <point x="104" y="669"/>
      <point x="80" y="594"/>
    </contour>
    <contour>
      <point x="156" y="566" type="qcurve" name="sv02"/>
      <point x="145" y="572"/>
      <point x="126" y="584"/>
      <point x="115" y="590" type="qcurve" name="sh04"/>
      <point x="136" y="610"/>
      <point x="155" y="669"/>
      <point x="148" y="704" type="qcurve" name="sh05"/>
      <point x="161" y="706"/>
      <point x="187" y="709"/>
      <point x="200" y="711" type="qcurve" name="ah01"/>
      <point x="208" y="669"/>
      <point x="184" y="594"/>
    </contour>
  </outline>
</glyph>
